<?xml version="1.0" encoding="utf-8"?>
<svg version="1.0" width="3310.000000pt" height="1774.000000pt" viewBox="0 0 3310.000000 1774.000000" preserveAspectRatio="xMidYMid meet" xmlns="http://www.w3.org/2000/svg">
  <rect x="-38.575" y="-40.446" width="3408.572" height="1870.044" style="stroke: rgb(0, 0, 0); fill: rgb(0, 51, 126);"/>
  <g transform="translate(0.000000,1774.000000) scale(0.100000,-0.100000)" fill="#ffffff" stroke="none">
    <path d="M20205 17170 c-49 -4 -156 -8 -237 -9 -81 -1 -191 -5 -245 -11 -54 -5 -147 -12 -208 -15 -269 -13 -803 -58 -1135 -96 -52 -5 -131 -14 -175 -19 -80 -9 -185 -22 -325 -40 -80 -10 -171 -22 -285 -40 -38 -6 -97 -13 -130 -16 -33 -3 -69 -9 -80 -14 -11 -5 -47 -11 -80 -14 -33 -3 -89 -10 -125 -16 -104 -18 -182 -30 -230 -36 -25 -3 -54 -9 -65 -14 -11 -5 -45 -11 -75 -14 -30 -3 -80 -10 -110 -16 -30 -6 -80 -15 -110 -20 -30 -6 -77 -14 -105 -20 -45 -9 -109 -20 -205 -36 -19 -3 -44 -9 -55 -14 -11 -5 -40 -11 -65 -14 -25 -3 -65 -10 -90 -15 -94 -19 -166 -33 -195 -38 -16 -2 -39 -8 -50 -13 -11 -5 -36 -11 -55 -14 -38 -5 -109 -20 -180 -37 -25 -5 -58 -13 -75 -15 -16 -3 -39 -9 -50 -14 -11 -5 -36 -11 -55 -14 -70 -10 -105 -18 -125 -26 -11 -5 -36 -11 -55 -14 -35 -6 -85 -17 -157 -36 -21 -5 -58 -14 -83 -20 -25 -6 -62 -15 -82 -20 -21 -6 -57 -15 -80 -20 -24 -6 -61 -16 -83 -21 -22 -6 -56 -13 -75 -16 -19 -3 -39 -9 -45 -13 -5 -3 -37 -13 -70 -20 -33 -7 -64 -17 -70 -22 -5 -4 -24 -8 -41 -8 -18 0 -36 -4 -39 -10 -3 -5 -21 -10 -40 -10 -19 0 -37 -4 -40 -10 -3 -5 -16 -10 -27 -10 -23 0 -81 -17 -110 -31 -10 -5 -25 -9 -35 -9 -19 0 -79 -18 -105 -31 -10 -5 -31 -9 -47 -9 -17 0 -33 -4 -36 -10 -3 -5 -17 -10 -30 -10 -13 0 -27 -4 -30 -10 -3 -5 -21 -10 -40 -10 -19 0 -37 -4 -40 -10 -3 -5 -17 -10 -30 -10 -13 0 -27 -4 -30 -10 -3 -5 -16 -10 -27 -10 -23 0 -81 -17 -110 -31 -10 -5 -27 -9 -37 -9 -11 0 -23 -4 -26 -10 -3 -5 -19 -10 -35 -10 -16 0 -32 -4 -35 -10 -3 -5 -19 -10 -35 -10 -16 0 -32 -4 -35 -10 -3 -5 -17 -10 -30 -10 -13 0 -27 -4 -30 -10 -3 -5 -17 -10 -30 -10 -13 0 -27 -4 -30 -10 -3 -5 -17 -10 -30 -10 -13 0 -27 -4 -30 -10 -3 -5 -16 -10 -28 -10 -24 0 -93 -22 -103 -33 -4 -4 -20 -7 -35 -7 -15 0 -31 -4 -34 -10 -3 -5 -17 -10 -30 -10 -13 0 -27 -4 -30 -10 -3 -5 -17 -10 -30 -10 -13 0 -27 -4 -30 -10 -3 -5 -17 -10 -30 -10 -13 0 -27 -4 -30 -10 -3 -5 -17 -10 -30 -10 -13 0 -27 -4 -30 -10 -3 -5 -17 -10 -30 -10 -13 0 -27 -4 -30 -10 -3 -5 -15 -10 -26 -10 -10 0 -27 -4 -37 -9 -25 -13 -62 -27 -107 -40 -41 -13 -77 -27 -107 -42 -10 -5 -27 -9 -37 -9 -11 0 -23 -4 -26 -10 -3 -5 -15 -10 -26 -10 -10 0 -28 -4 -39 -10 -11 -5 -29 -14 -40 -20 -11 -5 -27 -10 -35 -10 -8 0 -24 -4 -35 -10 -11 -5 -29 -14 -40 -20 -11 -5 -27 -10 -35 -10 -8 0 -23 -4 -33 -9 -9 -5 -30 -14 -47 -21 -16 -7 -38 -16 -47 -21 -10 -5 -25 -9 -33 -9 -8 0 -23 -4 -33 -9 -9 -5 -30 -14 -47 -21 -16 -7 -38 -16 -47 -21 -10 -5 -25 -9 -33 -9 -8 0 -23 -4 -33 -9 -18 -9 -62 -28 -99 -42 -13 -5 -35 -14 -50 -20 -16 -7 -38 -16 -50 -20 -44 -17 -78 -31 -95 -40 -10 -5 -22 -9 -28 -9 -6 0 -32 -9 -58 -21 -51 -23 -86 -37 -117 -49 -30 -12 -97 -41 -129 -56 -16 -8 -33 -14 -38 -14 -4 0 -30 -10 -56 -21 -26 -12 -62 -28 -79 -35 -31 -13 -48 -20 -140 -60 -21 -9 -60 -26 -88 -39 -27 -12 -67 -30 -87 -39 -97 -41 -117 -50 -178 -78 -36 -17 -101 -47 -145 -68 -44 -21 -114 -53 -156 -73 -263 -123 -335 -158 -599 -295 -296 -152 -374 -193 -385 -201 -5 -5 -57 -32 -115 -62 -58 -29 -112 -58 -120 -65 -8 -6 -44 -27 -80 -46 -36 -19 -89 -49 -118 -66 -29 -18 -54 -32 -56 -32 -2 0 -34 -18 -70 -40 -36 -22 -70 -40 -76 -40 -5 0 -10 -3 -10 -8 0 -4 -21 -18 -47 -32 -27 -13 -66 -36 -88 -50 -22 -14 -49 -30 -60 -37 -11 -7 -60 -37 -110 -67 -49 -31 -103 -64 -119 -73 -16 -10 -84 -54 -152 -98 -68 -44 -138 -89 -156 -100 -75 -46 -298 -197 -428 -290 -58 -41 -134 -95 -170 -120 -36 -25 -85 -61 -110 -80 -25 -19 -56 -43 -70 -52 -14 -10 -70 -51 -124 -93 -54 -41 -114 -86 -132 -100 -52 -40 -104 -81 -182 -145 -40 -33 -91 -73 -112 -90 -58 -45 -129 -104 -186 -155 -28 -25 -93 -81 -145 -125 -51 -44 -128 -111 -170 -150 -42 -38 -94 -83 -115 -98 -55 -40 -155 -118 -181 -142 -12 -11 -43 -36 -68 -55 -25 -19 -62 -48 -81 -65 -34 -29 -35 -31 -20 -60 8 -16 33 -48 55 -69 l40 -39 83 79 c103 98 343 309 395 347 110 80 135 99 223 158 52 35 117 81 145 101 27 21 56 38 63 38 6 0 12 4 12 8 0 4 14 17 32 27 54 34 93 59 134 86 59 40 235 153 271 175 18 10 116 70 218 132 102 61 188 112 190 112 3 0 18 8 33 19 15 10 59 36 97 58 39 22 102 58 140 80 68 40 126 72 252 139 69 37 163 88 263 142 78 42 591 298 675 337 33 15 105 49 160 75 55 26 123 58 150 70 28 12 87 40 133 61 46 21 87 39 91 39 4 0 45 18 90 40 45 22 85 40 90 40 4 0 35 14 69 30 34 17 66 30 71 30 4 0 21 6 37 14 16 8 45 20 64 28 19 8 60 25 90 38 30 13 71 30 90 38 19 8 48 20 64 28 16 8 33 14 38 14 5 0 28 9 50 20 23 11 46 20 50 20 5 0 28 9 50 20 23 11 45 20 50 20 5 0 27 8 51 19 23 10 58 24 77 31 19 7 54 21 77 31 24 11 47 19 53 19 6 0 29 8 53 19 23 10 58 24 77 31 19 7 49 18 65 25 17 8 66 25 110 40 78 25 92 30 145 53 14 6 54 20 90 32 36 11 73 25 82 30 10 6 25 10 33 10 8 0 23 4 33 9 31 16 66 29 147 57 44 15 87 30 96 35 8 4 21 4 27 0 8 -4 -16 -20 -60 -40 -92 -41 -919 -453 -973 -484 -22 -13 -78 -43 -125 -67 -47 -24 -96 -51 -110 -60 -14 -9 -54 -32 -90 -50 -36 -19 -72 -39 -80 -45 -8 -7 -40 -25 -70 -41 -30 -16 -66 -36 -80 -45 -31 -20 -190 -113 -210 -122 -8 -4 -40 -23 -70 -42 -30 -19 -75 -46 -100 -60 -25 -14 -83 -50 -130 -80 -47 -30 -116 -73 -155 -97 -90 -55 -697 -462 -795 -533 -41 -30 -93 -67 -115 -82 -33 -24 -314 -234 -434 -325 -20 -15 -47 -35 -61 -45 -14 -9 -44 -33 -67 -53 -23 -19 -65 -53 -93 -75 -27 -22 -72 -58 -99 -80 -26 -22 -81 -67 -121 -100 -40 -33 -97 -80 -125 -105 -163 -141 -260 -226 -359 -314 -135 -121 -906 -894 -906 -908 0 -6 -36 -48 -80 -94 -44 -46 -80 -92 -80 -102 0 -19 59 -82 77 -82 5 0 22 17 36 38 15 20 69 80 122 132 52 52 95 98 95 103 0 8 660 662 730 722 25 22 79 71 120 110 93 86 301 266 445 385 37 30 88 73 114 95 84 70 144 119 185 150 53 40 87 66 202 155 118 91 158 122 204 155 19 14 55 41 80 59 25 19 74 55 110 80 36 26 99 71 140 101 41 30 82 58 90 62 8 4 34 22 58 40 65 50 480 323 490 323 5 0 17 9 27 20 10 11 22 20 26 20 4 0 40 21 81 48 40 26 82 52 93 59 85 50 249 152 292 179 28 19 54 34 56 34 3 0 36 19 73 42 38 23 98 58 134 78 36 20 86 49 113 63 26 15 67 38 92 52 25 14 56 31 68 39 12 7 51 29 87 48 36 19 90 49 120 65 212 116 880 450 1070 535 45 20 96 43 208 94 31 15 73 33 92 42 19 8 57 25 84 38 28 13 53 24 57 24 5 0 36 13 71 29 35 15 88 38 118 51 109 45 121 50 158 66 20 9 48 21 62 26 14 6 33 14 42 19 10 5 23 9 28 9 6 0 30 9 52 20 23 11 46 20 50 20 5 0 28 9 50 20 23 11 45 20 50 20 5 0 27 8 51 19 23 10 58 24 77 31 61 21 121 45 152 61 10 5 29 9 42 9 14 0 28 5 31 10 3 6 21 10 40 10 19 0 37 5 40 10 3 6 17 10 30 10 13 0 27 5 30 10 3 6 21 10 40 10 19 0 37 5 40 10 3 6 21 10 40 10 19 0 37 5 40 10 3 6 16 10 27 10 12 0 35 4 52 9 17 5 51 15 76 21 25 7 53 16 62 21 10 5 31 9 47 9 17 0 33 5 36 10 3 6 21 10 40 10 19 0 37 5 40 10 3 6 17 10 30 10 25 0 290 63 381 91 17 5 42 9 57 9 14 0 28 4 31 9 3 4 25 11 48 15 86 12 113 18 133 26 11 5 36 11 55 14 19 3 55 11 80 16 56 14 109 25 180 39 30 6 98 20 150 32 52 11 118 24 145 29 28 5 73 14 100 20 28 6 70 15 95 20 25 4 71 13 103 19 31 6 83 16 115 22 31 6 77 15 102 20 25 5 72 14 105 19 112 19 170 29 230 41 65 12 124 22 225 37 132 20 276 43 325 52 28 5 86 14 130 20 125 17 216 30 270 40 28 5 75 12 105 15 30 4 89 11 130 16 41 6 93 12 115 15 50 5 189 22 280 34 75 10 231 27 305 34 25 2 70 7 100 11 258 29 754 70 1130 95 446 29 561 33 1215 51 535 14 1456 1 1830 -26 39 -3 149 -10 245 -15 245 -14 302 -20 314 -29 6 -5 27 -11 46 -14 19 -3 55 -11 80 -17 25 -6 63 -15 85 -21 22 -5 58 -14 80 -20 22 -5 56 -14 75 -19 19 -5 49 -12 65 -15 17 -4 39 -10 50 -14 42 -17 92 -31 108 -31 10 0 25 -4 35 -9 9 -5 37 -14 62 -21 25 -7 53 -16 62 -21 10 -5 29 -9 42 -9 14 0 28 -4 31 -10 3 -5 17 -10 30 -10 13 0 27 -4 30 -10 3 -5 17 -10 30 -10 13 0 27 -4 30 -10 3 -5 17 -10 30 -10 13 0 27 -4 30 -10 3 -5 15 -10 26 -10 10 0 27 -4 37 -9 29 -15 65 -29 107 -42 22 -7 44 -17 50 -21 5 -4 17 -8 27 -8 10 0 26 -4 36 -9 9 -5 28 -13 42 -18 14 -6 37 -15 53 -22 15 -6 37 -15 50 -20 44 -17 73 -29 117 -49 25 -11 61 -27 80 -35 64 -27 114 -49 170 -75 78 -35 338 -165 385 -192 22 -13 69 -39 105 -58 36 -19 72 -39 80 -46 8 -6 35 -22 60 -36 25 -13 71 -41 102 -62 31 -21 61 -38 66 -38 5 0 17 -9 27 -20 10 -11 23 -20 29 -20 6 0 35 -18 64 -40 29 -22 55 -40 57 -40 3 0 35 -22 70 -50 35 -27 67 -50 70 -50 5 0 78 -56 173 -133 26 -20 63 -50 83 -65 120 -92 432 -391 543 -520 138 -162 176 -208 233 -286 32 -43 73 -99 91 -123 17 -24 32 -47 32 -52 0 -4 9 -16 20 -26 11 -10 20 -23 20 -30 0 -7 9 -20 20 -30 11 -10 20 -22 20 -27 0 -5 14 -29 30 -53 17 -24 30 -47 30 -50 0 -4 9 -20 20 -35 33 -46 151 -274 201 -387 11 -24 29 -64 40 -90 12 -27 26 -59 31 -73 6 -14 14 -33 19 -42 5 -10 9 -25 9 -33 0 -8 5 -24 10 -35 6 -11 15 -29 20 -40 6 -11 10 -29 10 -39 0 -11 5 -23 10 -26 6 -3 10 -19 10 -35 0 -16 5 -32 10 -35 6 -3 10 -17 10 -30 0 -13 5 -27 10 -30 6 -3 10 -17 10 -30 0 -13 5 -27 10 -30 6 -3 10 -21 10 -40 0 -19 5 -37 10 -40 6 -3 10 -21 10 -40 0 -19 4 -36 9 -39 4 -3 11 -25 15 -48 3 -24 10 -65 16 -93 50 -261 66 -401 79 -670 10 -222 -5 -627 -29 -765 -10 -59 -5 -72 32 -76 13 -1 35 -6 50 -9 37 -10 44 10 59 150 43 432 37 825 -21 1200 -6 39 -13 90 -16 115 -3 25 -10 49 -15 55 -5 5 -9 27 -9 50 0 23 -4 45 -9 50 -5 6 -11 28 -15 50 -12 85 -19 115 -27 121 -5 3 -9 18 -9 34 0 16 -4 32 -10 35 -5 3 -10 19 -10 35 0 16 -4 32 -10 35 -5 3 -10 19 -10 35 0 16 -4 32 -10 35 -5 3 -10 17 -10 30 0 13 -4 27 -10 30 -5 3 -10 15 -10 26 0 10 -4 27 -9 37 -5 9 -14 31 -21 47 -7 17 -16 38 -21 47 -5 10 -9 24 -9 32 0 8 -10 34 -21 58 -12 23 -25 52 -29 63 -23 64 -148 318 -191 390 -16 28 -32 57 -36 65 -3 8 -19 34 -35 57 -15 23 -28 44 -28 48 0 19 -227 337 -350 490 -133 164 -438 478 -595 611 -158 133 -198 166 -310 249 -66 50 -127 95 -136 100 -9 6 -78 52 -154 103 -75 50 -139 92 -142 92 -2 0 -24 14 -48 30 -24 17 -47 30 -50 30 -4 0 -19 9 -34 19 -15 11 -54 34 -86 52 -33 18 -78 43 -100 55 -80 46 -455 229 -570 279 -74 32 -110 47 -140 60 -48 19 -137 57 -170 71 -16 7 -52 20 -80 29 -27 9 -61 21 -75 27 -49 21 -66 27 -160 58 -52 17 -104 35 -115 40 -32 13 -159 50 -175 50 -13 1 -13 2 0 9 9 5 74 1 155 -10 77 -10 181 -23 230 -29 50 -5 119 -14 155 -19 36 -5 101 -15 145 -21 44 -6 109 -16 145 -22 36 -5 92 -13 125 -18 33 -4 114 -17 180 -29 111 -21 160 -29 290 -51 56 -10 137 -25 205 -39 25 -5 72 -14 105 -21 33 -7 78 -16 100 -20 22 -5 78 -16 125 -25 47 -9 93 -21 102 -26 10 -5 33 -9 52 -9 19 0 37 -4 40 -9 3 -5 23 -11 43 -14 21 -3 58 -10 83 -16 25 -6 61 -14 80 -17 19 -3 44 -9 55 -14 37 -15 102 -30 128 -30 14 0 29 -4 32 -10 3 -5 19 -10 36 -10 16 0 37 -4 47 -9 29 -14 87 -31 110 -31 11 0 24 -4 27 -10 3 -5 19 -10 36 -10 16 0 37 -4 47 -9 26 -13 86 -31 105 -31 10 0 25 -4 35 -9 29 -14 87 -31 110 -31 11 0 24 -4 27 -10 3 -5 15 -10 26 -10 10 0 27 -4 37 -9 30 -15 149 -51 170 -51 12 0 24 -4 27 -10 3 -5 17 -10 30 -10 13 0 27 -4 30 -10 3 -5 17 -10 30 -10 13 0 27 -4 30 -10 3 -5 17 -10 30 -10 13 0 27 -4 30 -10 3 -5 17 -10 30 -10 13 0 27 -4 30 -10 3 -5 17 -10 30 -10 13 0 27 -4 30 -10 3 -5 14 -10 24 -10 9 0 36 -9 59 -20 22 -11 48 -20 56 -20 8 0 18 -4 21 -10 3 -5 17 -10 30 -10 13 0 27 -4 30 -10 3 -5 14 -10 24 -10 9 0 36 -9 59 -20 22 -11 46 -20 52 -20 5 0 18 -4 28 -9 17 -9 53 -24 102 -44 14 -5 36 -14 50 -20 14 -5 35 -14 48 -18 12 -5 32 -13 45 -18 44 -17 73 -29 117 -49 44 -20 92 -40 160 -69 66 -28 353 -163 395 -186 11 -6 81 -42 155 -80 74 -39 147 -76 161 -83 53 -28 229 -257 373 -487 53 -85 150 -270 196 -372 12 -27 31 -67 41 -88 11 -22 19 -43 19 -48 0 -6 9 -29 20 -51 11 -23 20 -50 20 -59 0 -10 5 -21 10 -24 6 -3 10 -17 10 -30 0 -13 5 -27 10 -30 6 -3 10 -17 10 -30 0 -13 5 -27 10 -30 6 -3 10 -17 10 -30 0 -13 5 -27 10 -30 6 -3 10 -21 10 -40 0 -19 4 -36 9 -39 5 -3 11 -20 14 -38 4 -18 9 -49 12 -68 4 -19 10 -44 15 -55 9 -20 11 -32 30 -165 29 -195 34 -276 33 -545 0 -159 -5 -333 -12 -385 -6 -52 -14 -120 -17 -150 -3 -30 -9 -64 -14 -75 -5 -11 -11 -39 -14 -62 -14 -106 -19 -129 -27 -138 -5 -5 -9 -24 -9 -41 0 -18 -4 -36 -10 -39 -5 -3 -10 -21 -10 -40 0 -19 -4 -36 -8 -39 -5 -3 -14 -35 -22 -71 -8 -36 -17 -68 -22 -71 -4 -3 -8 -16 -8 -29 0 -13 -4 -27 -10 -30 -5 -3 -10 -17 -10 -30 0 -13 -4 -27 -10 -30 -5 -3 -10 -17 -10 -30 0 -13 -4 -27 -10 -30 -5 -3 -10 -15 -10 -26 0 -10 -4 -27 -9 -37 -11 -22 -26 -59 -41 -102 -7 -19 -21 -55 -32 -79 -25 -55 -21 -72 22 -93 46 -22 79 -23 86 0 3 9 14 34 25 55 10 22 19 45 19 53 0 7 9 29 20 49 11 20 20 44 20 55 0 10 5 22 10 25 6 3 10 17 10 30 0 13 5 27 10 30 6 3 10 17 10 30 0 13 5 27 10 30 6 3 10 17 10 30 0 13 5 27 10 30 6 3 10 17 10 30 0 13 5 27 10 30 6 3 10 17 10 30 0 13 5 27 10 30 6 3 10 21 10 40 0 19 5 37 10 40 6 3 10 21 10 40 0 19 4 36 9 39 5 3 12 20 15 38 4 18 11 54 16 81 35 171 43 220 59 342 5 44 12 87 15 95 2 8 7 91 10 183 3 93 8 172 10 175 5 9 -22 400 -34 487 -9 67 -22 150 -35 225 -4 19 -10 44 -15 55 -5 11 -11 37 -14 58 -13 83 -19 107 -27 113 -5 3 -9 18 -9 34 0 16 -4 32 -10 35 -5 3 -10 17 -10 30 0 13 -4 27 -10 30 -5 3 -10 17 -10 30 0 13 -4 27 -10 30 -5 3 -10 17 -10 30 0 13 -4 27 -10 30 -5 3 -10 15 -10 26 0 10 -4 27 -9 37 -9 18 -28 63 -41 97 -20 51 -85 197 -103 230 -6 11 -26 49 -45 85 -55 104 -83 153 -103 182 -11 14 -19 29 -19 32 0 3 -25 42 -56 87 -30 45 -53 83 -50 86 5 5 56 -26 220 -136 55 -36 106 -70 114 -76 17 -11 132 -95 197 -144 95 -72 257 -202 321 -257 109 -94 429 -411 508 -502 105 -123 236 -288 236 -297 0 -3 23 -35 50 -70 28 -35 50 -67 50 -70 0 -3 23 -39 50 -80 28 -41 50 -77 50 -81 0 -3 9 -19 21 -35 48 -68 188 -352 229 -464 4 -11 17 -40 29 -63 11 -24 21 -52 21 -62 0 -11 5 -22 10 -25 6 -3 10 -17 10 -30 0 -13 5 -27 10 -30 6 -3 10 -17 10 -30 0 -13 5 -27 10 -30 6 -3 10 -19 10 -35 0 -16 5 -32 10 -35 6 -3 10 -19 10 -35 0 -16 5 -32 10 -35 6 -3 10 -21 10 -40 0 -19 4 -36 9 -39 4 -3 11 -25 15 -48 3 -24 10 -65 16 -93 34 -163 47 -290 60 -560 6 -132 14 -243 18 -246 4 -4 28 -9 53 -11 43 -5 46 -3 56 22 6 16 7 34 2 41 -4 7 -3 21 2 31 12 22 4 346 -11 463 -18 139 -31 219 -41 251 -5 17 -9 47 -9 67 0 20 -4 39 -10 42 -5 3 -10 17 -10 30 0 30 -19 113 -31 137 -5 10 -9 29 -9 42 0 14 -4 28 -10 31 -5 3 -10 17 -10 30 0 13 -4 27 -10 30 -5 3 -10 17 -10 31 0 13 -4 33 -10 44 -5 11 -14 29 -20 40 -5 11 -10 27 -10 35 0 8 -4 23 -9 33 -10 19 -30 67 -41 97 -48 132 -207 446 -271 537 -11 14 -19 29 -19 33 0 24 -235 343 -376 510 -100 120 -484 502 -604 602 -164 137 -272 222 -389 305 -92 66 -391 268 -397 268 -2 0 -38 23 -80 50 -41 28 -77 50 -80 50 -2 0 -32 17 -67 38 -34 20 -79 46 -101 57 -21 11 -66 52 -100 90 -201 230 -550 540 -838 745 -110 78 -250 170 -258 170 -4 0 -13 7 -20 15 -7 8 -24 21 -39 28 -14 8 -63 37 -109 65 -46 29 -85 52 -87 52 -2 0 -28 14 -57 31 -65 39 -109 64 -137 78 -38 20 -65 34 -121 64 -92 50 -318 160 -427 208 -24 11 -64 29 -90 40 -27 12 -58 25 -70 30 -13 5 -33 13 -45 18 -28 10 -117 50 -140 62 -10 5 -25 9 -33 9 -8 0 -23 4 -33 9 -17 9 -51 23 -94 40 -38 14 -82 33 -100 42 -10 5 -27 9 -37 9 -11 0 -23 5 -26 10 -3 6 -15 10 -26 10 -10 0 -28 5 -39 10 -11 6 -29 15 -40 20 -11 6 -29 10 -39 10 -11 0 -23 5 -26 10 -3 6 -16 10 -29 10 -12 0 -26 4 -31 8 -6 5 -30 14 -55 21 -25 7 -53 17 -62 22 -10 5 -29 9 -42 9 -14 0 -28 5 -31 10 -3 6 -17 10 -30 10 -13 0 -27 5 -30 10 -3 6 -17 10 -30 10 -13 0 -27 5 -30 10 -3 6 -19 10 -35 10 -16 0 -32 5 -35 10 -3 6 -19 10 -35 10 -16 0 -32 5 -35 10 -3 6 -19 10 -35 10 -16 0 -32 5 -35 10 -3 6 -19 10 -35 10 -16 0 -32 5 -35 10 -3 6 -19 10 -35 10 -16 0 -31 4 -34 9 -3 5 -20 11 -38 14 -18 3 -51 10 -73 16 -22 5 -60 15 -85 21 -25 6 -61 15 -80 20 -62 16 -124 30 -160 36 -19 3 -44 9 -55 14 -20 8 -55 16 -125 26 -19 3 -44 9 -55 14 -21 9 -58 16 -135 26 -25 3 -54 9 -65 14 -11 5 -38 11 -60 14 -22 3 -65 10 -95 16 -30 6 -77 14 -105 17 -27 2 -54 9 -60 14 -5 5 -32 9 -60 9 -28 0 -55 4 -60 9 -6 5 -35 12 -65 15 -30 3 -80 8 -110 11 -30 3 -64 10 -75 15 -11 5 -45 11 -75 14 -30 3 -86 8 -125 11 -38 3 -79 10 -90 15 -11 5 -47 11 -80 14 -33 3 -103 9 -155 15 -226 25 -291 32 -395 41 -255 24 -578 46 -875 61 -259 12 -1455 19 -1575 9z m1210 -135 c196 -4 522 -19 695 -31 283 -19 557 -41 675 -54 179 -19 271 -30 353 -40 45 -5 117 -14 160 -20 110 -13 296 -40 412 -59 147 -25 199 -33 250 -42 30 -6 75 -12 100 -15 25 -3 54 -9 65 -14 11 -5 38 -11 60 -14 87 -11 121 -18 140 -26 21 -9 59 -16 138 -26 26 -4 50 -11 53 -15 3 -5 23 -9 44 -9 21 0 42 -4 45 -10 3 -5 19 -10 35 -10 16 0 39 -4 52 -9 13 -5 50 -14 83 -21 33 -7 69 -16 80 -20 26 -10 150 -41 193 -47 18 -3 35 -9 38 -14 3 -5 18 -9 35 -9 16 0 37 -4 47 -9 26 -13 86 -31 105 -31 10 0 25 -4 35 -9 29 -14 87 -31 110 -31 11 0 24 -4 27 -10 3 -5 17 -10 30 -10 13 0 27 -4 30 -10 3 -5 15 -10 26 -10 10 0 27 -4 37 -9 9 -5 64 -23 122 -41 58 -18 114 -36 125 -41 11 -4 38 -13 60 -20 22 -7 44 -17 50 -21 5 -4 19 -8 31 -8 13 0 26 -4 29 -10 3 -5 15 -10 26 -10 10 0 27 -4 37 -9 19 -10 79 -34 145 -60 12 -4 34 -13 50 -20 35 -14 71 -29 100 -40 45 -17 73 -29 122 -51 28 -12 59 -26 70 -30 135 -52 675 -320 747 -371 14 -11 29 -19 32 -19 9 0 205 -119 311 -189 55 -36 107 -70 117 -76 25 -16 148 -103 198 -141 25 -18 61 -45 80 -59 142 -102 431 -356 412 -363 -5 -1 -67 25 -138 59 -161 77 -227 107 -339 154 -16 7 -48 20 -70 30 -22 9 -50 21 -62 26 -13 5 -33 13 -45 18 -13 5 -44 18 -70 30 -26 12 -52 21 -58 21 -6 0 -18 4 -28 9 -17 9 -51 23 -94 40 -13 4 -34 13 -48 19 -14 6 -43 16 -65 23 -22 7 -44 17 -50 21 -5 4 -17 8 -27 8 -10 0 -26 4 -36 9 -23 12 -60 26 -102 41 -19 7 -44 16 -55 20 -11 4 -54 18 -95 31 -41 12 -79 26 -85 31 -5 4 -17 8 -27 8 -10 0 -26 4 -36 9 -9 5 -37 14 -62 21 -25 7 -53 16 -62 21 -10 5 -29 9 -42 9 -14 0 -28 5 -31 10 -3 6 -15 10 -26 10 -10 0 -27 4 -37 9 -29 14 -87 31 -110 31 -11 0 -24 5 -27 10 -3 6 -17 10 -30 10 -13 0 -27 5 -30 10 -3 6 -21 10 -40 10 -19 0 -37 5 -40 10 -3 6 -17 10 -30 10 -13 0 -27 5 -30 10 -3 6 -21 10 -40 10 -19 0 -37 5 -40 10 -3 6 -21 10 -40 10 -19 0 -37 5 -40 10 -3 6 -19 10 -35 10 -16 0 -32 5 -35 10 -3 6 -16 10 -27 10 -12 0 -35 4 -52 9 -69 21 -260 68 -366 91 -25 5 -65 14 -90 20 -25 5 -65 14 -90 20 -25 5 -65 14 -90 20 -25 5 -70 15 -100 21 -30 6 -73 15 -95 19 -106 21 -164 33 -210 41 -27 4 -75 13 -105 19 -30 5 -84 15 -120 21 -36 6 -87 15 -115 19 -27 5 -77 14 -110 20 -33 5 -91 15 -130 21 -38 6 -97 15 -130 20 -33 5 -94 14 -135 19 -41 6 -104 15 -140 20 -36 6 -103 15 -150 21 -47 5 -119 14 -160 20 -254 32 -711 77 -1000 99 -69 5 -145 13 -170 19 -145 31 -242 50 -310 61 -30 5 -80 14 -110 19 -30 6 -86 16 -125 22 -38 6 -97 15 -130 20 -33 5 -91 13 -130 18 -38 5 -106 14 -150 21 -44 6 -120 15 -170 20 -49 5 -153 15 -230 23 -77 9 -212 20 -300 27 -88 6 -187 13 -220 15 -611 45 -1658 25 -2420 -45 -225 -20 -552 -57 -720 -80 -44 -7 -111 -16 -150 -21 -38 -5 -86 -11 -105 -14 -19 -3 -64 -10 -100 -15 -237 -36 -415 -65 -485 -80 -22 -5 -74 -14 -115 -20 -41 -7 -82 -14 -90 -17 -8 -3 -40 -9 -70 -14 -30 -5 -77 -14 -105 -20 -27 -5 -72 -14 -100 -20 -122 -24 -227 -46 -285 -59 -25 -6 -65 -15 -90 -20 -25 -6 -63 -14 -85 -19 -22 -6 -53 -13 -70 -16 -37 -8 -186 -42 -237 -55 -21 -6 -56 -14 -78 -20 -22 -5 -59 -15 -82 -21 -24 -6 -60 -15 -80 -20 -67 -16 -111 -28 -188 -49 -41 -12 -93 -26 -115 -32 -22 -5 -58 -14 -80 -20 -22 -5 -48 -14 -57 -19 -10 -5 -26 -9 -36 -9 -9 0 -40 -8 -67 -18 -28 -10 -77 -24 -110 -32 -33 -7 -64 -17 -69 -22 -6 -4 -20 -8 -33 -8 -13 0 -31 -4 -41 -9 -9 -5 -51 -19 -92 -31 -41 -12 -83 -26 -92 -31 -10 -5 -25 -9 -34 -9 -17 0 -258 -77 -286 -91 -10 -5 -27 -9 -37 -9 -11 0 -23 -4 -26 -10 -3 -5 -17 -10 -30 -10 -13 0 -27 -4 -30 -10 -3 -5 -16 -10 -29 -10 -12 0 -26 -4 -32 -8 -5 -5 -29 -14 -54 -21 -25 -7 -53 -17 -62 -22 -10 -5 -25 -9 -33 -9 -8 0 -23 -4 -33 -10 -9 -5 -46 -19 -82 -30 -66 -21 -100 -35 -132 -51 -10 -5 -27 -9 -37 -9 -11 0 -23 -4 -26 -10 -3 -5 -15 -10 -26 -10 -10 0 -27 -4 -37 -9 -9 -5 -30 -14 -47 -21 -16 -7 -38 -16 -47 -21 -10 -5 -26 -9 -36 -9 -10 0 -22 -4 -28 -8 -5 -5 -29 -14 -54 -21 -25 -7 -53 -17 -62 -22 -10 -5 -25 -9 -35 -9 -19 0 -79 -18 -105 -31 -10 -5 -25 -9 -35 -9 -19 0 -79 -18 -105 -31 -10 -5 -25 -9 -34 -9 -18 0 -139 -37 -166 -51 -10 -5 -27 -9 -38 -9 -11 0 -28 -4 -38 -9 -9 -5 -51 -19 -92 -31 -41 -12 -83 -26 -92 -31 -10 -5 -27 -9 -38 -9 -11 0 -28 -4 -38 -9 -9 -5 -118 -41 -242 -81 -124 -40 -234 -76 -245 -81 -11 -4 -90 -31 -175 -59 -85 -28 -163 -55 -172 -60 -10 -6 -26 -10 -36 -10 -10 0 -22 -4 -28 -9 -5 -5 -52 -23 -104 -41 -52 -17 -105 -35 -117 -41 -13 -5 -33 -13 -45 -18 -13 -5 -52 -19 -88 -31 -36 -12 -84 -30 -107 -41 -24 -10 -47 -19 -53 -19 -6 0 -29 -8 -53 -19 -23 -10 -58 -24 -77 -31 -19 -7 -54 -21 -77 -31 -24 -11 -47 -19 -53 -19 -6 0 -19 -4 -30 -10 -11 -5 -29 -14 -40 -20 -11 -5 -25 -10 -30 -10 -6 0 -30 -9 -52 -20 -23 -11 -45 -20 -50 -20 -5 0 -27 -8 -51 -19 -37 -16 -72 -31 -184 -77 -18 -8 -48 -20 -65 -28 -18 -7 -58 -23 -88 -36 -30 -13 -70 -29 -88 -36 -60 -26 -107 -46 -170 -75 -35 -16 -67 -29 -71 -29 -4 0 -45 -18 -90 -40 -45 -22 -85 -40 -89 -40 -4 0 -48 -20 -97 -44 -50 -23 -108 -51 -130 -61 -105 -46 -544 -257 -600 -288 -11 -6 -103 -53 -205 -105 -102 -52 -212 -109 -245 -127 -110 -59 -247 -134 -354 -194 -41 -22 -76 -41 -79 -41 -3 0 -13 -6 -21 -14 -9 -7 -41 -26 -71 -42 -30 -16 -66 -36 -80 -45 -14 -9 -62 -39 -108 -65 -45 -27 -96 -58 -114 -68 -70 -43 -16 8 87 83 61 44 123 90 140 103 63 50 683 462 802 534 84 50 262 159 293 179 47 30 199 120 285 168 39 22 102 58 140 80 39 22 104 58 145 80 41 22 93 51 115 64 22 13 83 45 135 72 52 28 120 63 150 80 123 68 775 390 935 461 28 12 88 40 135 62 47 22 105 49 130 60 25 11 73 33 108 49 35 16 66 29 71 29 4 0 35 14 69 30 34 17 66 30 70 30 5 0 36 14 70 30 34 17 66 30 71 30 4 0 21 6 37 14 16 8 45 20 64 28 79 33 146 61 168 69 12 5 32 13 45 18 12 4 34 13 50 20 15 6 37 15 50 20 37 14 81 33 99 42 10 5 23 9 28 9 6 0 30 9 52 20 23 11 45 20 50 20 5 0 27 8 51 19 23 10 58 24 77 31 43 15 80 30 102 41 10 5 25 9 33 9 8 0 23 4 33 9 9 5 31 14 47 21 17 7 38 16 47 21 10 5 26 9 36 9 10 0 22 4 28 8 5 4 27 14 49 21 42 13 78 27 107 42 10 5 27 9 37 9 11 0 23 5 26 10 3 6 17 10 30 10 13 0 26 4 29 8 3 4 28 14 56 22 28 8 53 18 56 22 3 4 14 8 25 8 10 0 28 5 39 10 11 6 29 15 40 20 11 6 29 10 39 10 11 0 23 5 26 10 3 6 17 10 30 10 13 0 27 5 30 10 3 6 17 10 30 10 13 0 27 5 30 10 3 6 17 10 30 10 13 0 27 5 30 10 3 6 17 10 30 10 13 0 27 5 30 10 3 6 17 10 30 10 13 0 27 5 30 10 3 6 17 10 30 10 13 0 37 5 52 11 54 22 68 27 113 39 25 6 53 16 62 21 10 5 27 9 37 9 11 0 23 5 26 10 3 6 17 10 30 10 13 0 27 5 30 10 3 6 15 10 27 10 21 0 140 36 170 51 10 5 27 9 37 9 11 0 23 5 26 10 3 6 16 10 27 10 23 0 81 17 110 31 10 5 25 9 35 9 19 0 79 18 105 31 10 5 25 9 35 9 19 0 79 18 105 31 10 5 25 9 35 9 9 0 30 4 47 9 17 5 51 15 76 21 25 7 53 16 62 21 10 5 31 9 47 9 17 0 33 5 36 10 3 6 16 10 27 10 12 0 35 4 52 9 17 5 51 15 76 21 25 7 53 16 62 21 10 5 31 9 47 9 17 0 33 5 36 10 3 6 21 10 40 10 19 0 37 5 40 10 3 6 21 10 40 10 19 0 37 5 40 10 3 6 21 10 40 10 19 0 37 5 40 10 3 6 21 10 40 10 19 0 36 4 39 9 3 4 25 11 48 14 24 4 63 11 88 17 25 7 62 14 83 17 20 3 40 9 43 14 3 5 20 9 38 9 17 0 36 4 41 9 6 5 28 11 50 14 69 10 109 18 130 27 11 5 36 11 55 14 19 3 55 9 80 15 25 5 70 14 100 20 30 6 75 16 100 22 58 13 121 26 190 39 30 6 78 15 105 21 28 5 68 12 90 15 22 3 49 9 60 14 11 5 40 11 65 14 25 3 68 10 95 16 78 15 155 28 220 39 139 23 252 42 275 47 14 3 52 9 85 14 33 5 87 14 120 19 109 17 199 31 275 41 41 6 107 15 145 21 72 10 179 25 250 35 43 5 324 39 415 49 30 3 96 10 145 16 50 5 140 14 200 20 61 5 155 14 210 19 55 5 165 14 245 20 80 6 152 12 160 15 8 2 58 5 110 6 52 1 118 5 145 10 28 4 137 10 244 13 106 4 197 8 201 11 4 2 261 7 571 11 310 4 566 9 569 11 3 3 25 2 50 -1 25 -3 140 -8 255 -11z m-880 -680 c355 -21 671 -47 681 -57 2 -3 -305 -8 -683 -11 -379 -3 -778 -10 -888 -16 -654 -34 -709 -38 -1090 -67 -366 -28 -722 -62 -1075 -104 -41 -5 -115 -14 -165 -19 -113 -14 -217 -27 -320 -41 -44 -6 -111 -16 -150 -21 -179 -25 -214 -30 -270 -38 -130 -20 -213 -33 -270 -41 -73 -11 -172 -27 -245 -40 -30 -5 -81 -13 -113 -16 -32 -4 -60 -11 -63 -15 -3 -5 -23 -9 -45 -9 -22 0 -59 -4 -82 -9 -52 -12 -131 -27 -217 -41 -36 -6 -83 -15 -105 -20 -22 -5 -67 -13 -100 -19 -125 -23 -421 -84 -443 -92 -30 -11 -72 -12 -72 -1 0 5 51 21 113 37 61 15 130 33 152 40 22 7 65 17 95 24 30 7 66 16 80 21 14 4 52 13 85 20 33 7 69 16 80 20 11 4 56 16 100 25 44 10 96 21 115 26 52 12 219 49 265 59 22 4 65 13 95 20 69 15 130 28 195 40 28 6 73 15 100 20 28 6 73 15 100 20 28 5 75 14 105 20 58 11 76 14 315 54 207 35 258 43 350 56 44 6 103 15 130 20 28 5 95 14 150 20 55 6 123 15 150 20 28 5 77 12 110 15 33 3 96 10 140 16 145 17 617 58 800 69 99 6 232 15 295 19 63 5 209 9 325 10 115 1 212 5 215 8 9 10 791 -7 1055 -22z m-5734 -694 c-12 -8 -51 -4 -51 5 0 2 15 4 33 4 22 0 28 -3 18 -9z"/>
    <path d="M9830 16325 c0 -8 7 -15 15 -15 8 0 15 7 15 15 0 8 -7 15 -15 15 -8 0 -15 -7 -15 -15z"/>
    <path d="M3297 12263 c-4 -3 -42 -10 -84 -15 -144 -16 -168 -20 -178 -29 -5 -5 -24 -9 -41 -9 -18 0 -36 -4 -39 -10 -3 -5 -21 -10 -40 -10 -19 0 -37 -4 -40 -10 -3 -5 -16 -10 -27 -10 -25 0 -199 -58 -212 -71 -6 -5 -20 -9 -32 -9 -13 0 -26 -4 -29 -10 -3 -5 -13 -10 -22 -10 -19 0 -268 -121 -317 -155 -20 -14 -39 -25 -42 -25 -4 0 -25 -13 -48 -28 -22 -15 -48 -31 -56 -35 -29 -14 -190 -140 -219 -171 -14 -14 -30 -26 -36 -26 -21 0 -355 -355 -355 -378 0 -5 -7 -15 -16 -22 -17 -15 -104 -127 -104 -135 0 -3 -16 -28 -36 -56 -20 -29 -48 -75 -63 -103 -15 -28 -38 -69 -52 -91 -37 -58 -169 -331 -169 -349 0 -8 -4 -18 -10 -21 -5 -3 -10 -15 -10 -25 0 -11 -9 -35 -20 -55 -11 -20 -20 -44 -20 -55 0 -10 -4 -22 -10 -25 -5 -3 -10 -17 -10 -30 0 -13 -4 -27 -10 -30 -5 -3 -10 -17 -10 -30 0 -13 -4 -27 -10 -30 -5 -3 -10 -15 -10 -26 0 -10 -4 -27 -9 -37 -14 -29 -31 -87 -31 -110 0 -11 -4 -23 -9 -26 -5 -3 -12 -20 -15 -38 -4 -18 -11 -55 -17 -83 -5 -27 -12 -66 -15 -85 -3 -19 -9 -44 -14 -55 -5 -11 -11 -38 -14 -60 -3 -22 -10 -71 -16 -110 -27 -175 -33 -270 -33 -565 0 -314 8 -476 24 -486 5 -3 9 -25 9 -49 0 -24 5 -47 10 -50 6 -3 10 -20 10 -37 0 -18 4 -45 9 -62 5 -17 15 -51 21 -76 7 -25 16 -53 21 -62 5 -10 9 -27 9 -37 0 -11 5 -23 10 -26 6 -3 10 -17 10 -30 0 -13 4 -27 10 -30 6 -3 10 -13 10 -22 0 -21 147 -318 165 -333 8 -7 15 -17 15 -22 0 -11 60 -105 105 -163 45 -59 297 -315 310 -315 6 0 24 -13 40 -30 16 -16 34 -30 40 -30 7 0 20 -9 30 -20 10 -11 23 -20 28 -20 6 0 19 -7 29 -16 25 -23 201 -116 298 -158 61 -26 188 -66 209 -66 11 0 23 -4 26 -10 3 -5 21 -10 40 -10 19 0 36 -4 39 -9 6 -9 45 -16 146 -27 30 -3 64 -9 75 -14 11 -5 72 -12 135 -14 213 -9 271 -8 490 9 110 8 283 34 365 54 22 6 60 15 85 21 25 6 57 14 73 17 15 3 30 9 33 14 3 5 16 9 29 9 13 0 27 5 30 10 3 6 17 10 30 10 13 0 27 5 30 10 3 6 17 10 30 10 13 0 27 5 30 10 3 6 13 10 22 10 9 0 91 37 182 82 164 81 395 224 441 273 13 14 28 25 32 25 13 0 125 98 217 190 82 81 215 237 261 305 8 12 43 63 77 113 62 90 87 131 127 207 12 22 23 42 26 45 13 13 90 170 90 184 0 9 5 16 10 16 6 0 10 7 10 15 0 8 9 30 20 50 11 20 20 44 20 55 0 11 5 20 10 20 6 0 10 7 10 15 0 8 4 23 9 33 15 29 29 65 42 107 7 22 17 44 21 50 4 5 8 19 8 31 0 13 4 25 9 28 5 3 11 18 14 33 3 16 10 45 16 66 35 119 55 197 71 272 7 33 16 74 20 90 4 17 13 64 20 105 6 41 15 100 20 130 24 149 52 553 44 635 -3 22 -9 105 -14 185 -10 144 -19 214 -40 320 -6 30 -14 72 -17 93 -3 20 -9 40 -14 43 -5 3 -9 20 -9 39 0 19 -4 37 -10 40 -5 3 -10 17 -10 30 0 13 -4 26 -9 29 -4 3 -11 23 -15 43 -3 21 -13 51 -21 67 -8 15 -15 33 -15 38 0 9 -69 160 -93 203 -6 11 -21 41 -34 67 -13 25 -31 52 -38 58 -8 7 -15 18 -15 24 0 12 -60 96 -132 185 -59 73 -172 187 -238 239 -30 23 -69 54 -86 67 -18 14 -36 25 -41 25 -6 0 -18 9 -28 20 -10 11 -22 20 -26 20 -5 0 -25 11 -45 25 -40 27 -217 115 -231 115 -5 0 -28 9 -51 20 -22 11 -46 20 -52 20 -5 0 -18 4 -28 9 -29 14 -87 31 -110 31 -11 0 -24 5 -27 10 -3 6 -21 10 -40 10 -19 0 -37 5 -40 10 -3 6 -26 10 -50 10 -24 0 -47 5 -50 10 -3 6 -35 10 -70 10 -35 0 -67 5 -70 10 -7 11 -627 14 -638 3z m473 -781 c30 -6 71 -14 90 -17 19 -4 44 -10 55 -15 11 -4 47 -18 80 -31 52 -20 110 -48 190 -93 66 -37 235 -189 235 -212 0 -7 4 -14 8 -16 11 -4 104 -144 118 -178 29 -65 57 -127 65 -142 5 -10 9 -27 9 -37 0 -11 4 -22 9 -25 5 -3 11 -18 14 -33 3 -16 11 -48 17 -73 46 -187 54 -265 54 -575 0 -298 -10 -413 -53 -625 -5 -25 -12 -63 -16 -85 -4 -22 -10 -49 -15 -60 -5 -11 -11 -33 -14 -50 -9 -53 -17 -89 -26 -110 -4 -11 -13 -40 -20 -65 -7 -25 -16 -54 -20 -65 -5 -11 -14 -38 -21 -60 -13 -45 -27 -82 -40 -107 -5 -10 -9 -24 -9 -32 0 -8 -9 -31 -19 -53 -11 -21 -27 -56 -36 -78 -43 -98 -132 -268 -165 -315 -11 -15 -20 -32 -20 -37 0 -6 -9 -18 -20 -28 -11 -10 -20 -22 -20 -26 0 -27 -215 -274 -287 -329 -17 -14 -58 -45 -90 -70 -94 -73 -140 -102 -253 -155 -41 -20 -83 -40 -92 -45 -10 -6 -27 -10 -37 -10 -11 0 -23 -4 -26 -10 -3 -5 -17 -10 -30 -10 -13 0 -27 -4 -30 -10 -3 -5 -19 -10 -35 -10 -16 0 -32 -4 -35 -10 -3 -5 -25 -10 -49 -10 -23 0 -47 -5 -53 -11 -15 -15 -441 -15 -456 0 -6 6 -27 11 -46 11 -19 0 -48 4 -65 10 -134 42 -169 55 -226 83 -78 38 -193 113 -237 156 -18 17 -37 31 -42 31 -5 0 -17 12 -27 28 -10 15 -31 41 -47 57 -63 66 -207 312 -207 354 0 6 -4 20 -10 31 -5 11 -14 29 -20 40 -5 11 -10 31 -10 44 0 14 -4 28 -10 31 -5 3 -10 19 -10 35 0 16 -4 32 -10 35 -5 3 -10 26 -10 50 0 24 -4 46 -9 49 -16 10 -25 163 -25 426 0 150 5 300 12 345 16 113 29 191 42 255 6 30 13 73 17 95 3 22 9 44 14 49 5 6 9 25 9 42 0 18 5 36 10 39 6 3 10 19 10 35 0 16 5 32 10 35 6 3 10 19 10 35 0 16 5 32 10 35 6 3 10 17 10 30 0 13 4 27 10 30 5 3 10 17 10 30 0 13 5 27 10 30 5 3 10 14 10 24 0 9 9 36 20 59 11 22 20 45 20 50 0 5 6 22 14 38 8 16 22 47 31 69 44 102 124 257 167 322 27 40 48 75 48 77 0 3 30 45 66 93 62 83 300 333 317 333 4 0 36 21 70 48 34 26 87 60 117 76 30 16 62 34 70 40 15 12 48 27 93 45 12 4 33 13 47 19 14 6 43 16 65 23 22 6 49 15 60 20 24 9 61 17 139 30 33 5 62 12 65 14 9 10 394 -2 451 -13z"/>
    <path d="M4230 10436 c-52 -57 -120 -134 -150 -171 -30 -37 -74 -89 -97 -115 -24 -26 -43 -52 -43 -58 0 -6 -6 -15 -13 -19 -11 -7 -77 -89 -169 -212 -41 -55 -299 -443 -331 -498 -15 -26 -44 -75 -64 -108 -36 -61 -208 -400 -237 -467 -66 -153 -73 -171 -86 -208 -7 -19 -19 -49 -26 -67 -8 -17 -14 -40 -14 -51 0 -12 -4 -24 -10 -27 -5 -3 -10 -17 -10 -30 0 -13 -4 -27 -10 -30 -5 -3 -10 -17 -10 -30 0 -13 -4 -27 -10 -30 -5 -3 -10 -17 -10 -30 0 -13 -4 -27 -10 -30 -5 -3 -10 -19 -10 -36 0 -16 -4 -37 -9 -47 -5 -9 -14 -37 -21 -62 -6 -25 -16 -59 -21 -76 -5 -17 -9 -42 -9 -57 0 -14 -4 -29 -10 -32 -5 -3 -10 -23 -10 -44 0 -31 5 -40 25 -49 14 -7 38 -12 53 -12 23 0 29 6 40 40 6 22 12 51 12 64 0 14 5 28 10 31 6 3 10 19 10 36 0 16 4 37 9 47 14 29 31 87 31 110 0 11 5 24 10 27 6 3 10 17 10 30 0 13 5 27 10 30 6 3 10 17 10 30 0 13 5 27 10 30 6 3 10 17 10 30 0 13 5 27 10 30 6 3 10 15 10 25 0 11 9 35 20 55 11 20 20 40 20 45 0 6 11 33 25 62 14 28 25 55 25 59 0 17 199 429 233 484 7 11 25 43 40 70 15 28 33 59 40 70 28 45 63 102 79 133 10 18 34 55 53 82 19 28 35 53 35 56 0 4 17 30 38 58 21 28 60 84 87 124 28 41 60 88 73 105 12 18 33 48 46 67 13 19 33 44 45 54 11 11 21 24 21 29 0 9 23 38 118 146 23 26 42 51 42 55 0 8 63 81 188 217 39 44 72 85 72 92 0 10 -72 77 -82 77 -2 0 -46 -47 -98 -104z"/>
    <path d="M4360 10101 c0 -6 -13 -30 -30 -54 -16 -25 -30 -47 -30 -51 0 -3 -12 -22 -26 -43 -14 -21 -35 -56 -45 -78 -11 -22 -33 -62 -49 -90 -37 -64 -180 -352 -180 -363 0 -4 -13 -34 -30 -67 -16 -33 -30 -65 -30 -72 0 -7 -9 -28 -20 -48 -11 -20 -20 -44 -20 -55 0 -10 -4 -22 -10 -25 -5 -3 -10 -14 -10 -24 0 -9 -9 -36 -20 -59 -11 -22 -20 -48 -20 -56 0 -8 -4 -18 -10 -21 -5 -3 -10 -15 -10 -26 0 -10 -4 -27 -9 -37 -14 -27 -51 -148 -51 -166 0 -9 -4 -24 -9 -34 -12 -21 -42 -135 -48 -182 -2 -19 -8 -44 -13 -55 -5 -11 -11 -38 -14 -60 -3 -22 -10 -65 -15 -95 -18 -98 -20 -114 -24 -167 l-4 -53 57 0 57 0 7 48 c6 51 21 137 35 217 9 48 20 92 42 180 6 22 13 55 16 73 3 18 9 35 14 38 5 3 9 20 9 39 0 19 5 37 10 40 6 3 10 17 10 30 0 13 5 27 10 30 6 3 10 17 10 30 0 13 5 27 10 30 6 3 10 17 10 30 0 13 5 27 10 30 6 3 10 17 10 30 0 13 5 27 10 30 6 3 10 14 10 24 0 9 9 36 20 59 11 22 20 45 20 50 0 4 9 27 20 50 11 22 20 45 20 49 0 5 13 35 30 68 16 33 30 65 30 70 0 11 181 373 218 438 12 20 30 52 41 70 10 17 30 52 45 77 15 25 29 53 33 63 3 9 9 17 14 17 21 0 6 21 -35 50 -46 31 -66 37 -66 21z"/>
    <path d="M18997 12193 c-2 -5 0 -73 4 -153 4 -80 10 -235 14 -345 4 -110 10 -209 15 -220 5 -11 12 -117 15 -235 6 -217 15 -435 35 -875 6 -132 15 -341 20 -465 14 -318 29 -658 40 -925 10 -237 22 -516 39 -925 5 -129 12 -275 16 -325 7 -119 16 -379 21 -644 3 -133 8 -217 15 -221 5 -4 235 -6 511 -5 410 2 502 5 509 16 5 8 20 43 35 79 15 36 44 101 65 145 22 44 39 85 39 91 0 7 13 36 28 65 15 30 34 70 41 89 7 19 35 81 62 136 27 56 49 106 49 110 0 5 18 45 40 89 22 44 40 85 40 91 0 7 13 36 28 65 15 30 34 70 41 89 7 19 28 67 46 105 18 39 41 88 50 110 10 22 35 77 56 122 22 44 39 86 39 91 0 5 13 34 28 63 15 30 34 70 41 89 7 19 28 67 46 105 18 39 41 88 50 110 9 22 31 69 47 105 17 36 34 74 38 85 4 11 19 45 33 75 14 30 33 73 42 95 10 22 28 64 41 93 13 28 36 78 50 110 14 31 30 65 35 74 5 10 9 25 9 33 0 8 5 15 10 15 6 0 10 7 10 15 0 8 4 23 9 33 13 25 52 114 61 137 11 31 31 78 41 97 5 10 9 27 9 38 0 11 5 20 10 20 6 0 10 9 10 19 0 11 5 23 10 26 6 3 10 17 10 31 0 13 5 24 10 24 6 0 10 9 10 19 0 11 5 23 10 26 6 3 10 14 10 24 0 9 9 36 20 59 11 22 20 48 20 56 0 8 5 18 10 21 6 3 10 17 10 31 0 13 4 24 8 24 5 0 15 23 22 51 8 27 18 52 22 55 4 3 8 16 8 29 0 13 5 27 10 30 6 3 10 16 10 29 0 12 4 26 8 32 5 5 15 29 22 54 8 25 16 50 20 55 4 6 12 30 20 55 7 25 17 49 22 55 4 5 8 17 8 27 0 10 4 26 9 36 5 9 15 37 22 62 7 25 16 49 21 55 4 5 8 19 8 31 0 13 5 26 10 29 6 3 10 17 10 30 0 13 5 27 10 30 6 3 10 17 10 30 0 13 5 27 10 30 6 3 10 17 10 30 0 13 5 27 10 30 6 3 10 17 10 30 0 13 5 27 10 30 6 3 10 17 10 29 0 30 26 54 42 38 8 -8 8 -44 0 -134 -6 -68 -15 -202 -19 -298 -12 -274 -9 -1364 6 -1790 22 -670 30 -965 36 -1345 4 -203 9 -377 12 -385 3 -8 6 -76 7 -150 l1 -135 495 0 c272 0 501 2 508 4 6 2 12 11 12 20 0 9 18 52 40 96 22 44 40 85 40 91 0 6 17 44 38 85 21 41 44 90 51 109 8 19 35 81 62 137 27 57 49 107 49 112 0 5 13 33 28 62 15 30 34 70 41 89 7 19 35 81 62 136 27 56 49 106 49 110 0 5 18 45 40 89 22 44 40 85 40 91 0 6 17 44 38 85 21 41 44 90 51 109 8 19 35 81 62 137 27 57 49 107 49 112 0 5 13 33 28 62 15 30 34 70 41 89 8 19 35 81 62 137 27 57 49 106 49 111 0 4 18 43 40 87 22 44 40 85 40 91 0 6 17 44 38 85 21 41 44 90 51 109 8 19 35 81 62 137 27 57 49 107 49 112 0 5 13 33 28 62 15 30 34 70 41 89 8 19 35 81 62 137 27 57 49 106 49 111 0 4 18 43 40 87 22 44 40 85 40 91 0 6 17 44 38 85 21 41 44 90 51 109 8 19 35 81 62 137 27 57 49 107 49 112 0 5 13 33 28 62 15 30 34 70 41 89 7 19 35 81 62 136 27 56 49 106 49 110 0 5 18 45 40 89 22 44 40 85 40 91 0 6 17 44 38 85 21 41 44 90 51 109 8 19 35 81 62 137 27 57 49 107 49 112 0 4 18 43 40 86 22 43 40 82 40 88 0 6 24 60 54 121 103 210 144 301 139 309 -6 10 -955 9 -971 -1 -11 -8 -29 -49 -63 -142 -6 -19 -20 -51 -30 -71 -11 -20 -19 -44 -19 -52 0 -8 -13 -41 -30 -72 -16 -31 -30 -62 -30 -69 0 -6 -13 -38 -30 -71 -16 -33 -30 -65 -30 -72 0 -7 -9 -28 -20 -48 -11 -20 -20 -41 -20 -48 0 -7 -13 -39 -30 -72 -16 -33 -30 -65 -30 -72 0 -7 -9 -28 -20 -48 -11 -20 -20 -41 -20 -48 0 -7 -13 -39 -30 -72 -16 -33 -30 -65 -30 -72 0 -7 -9 -28 -20 -48 -11 -20 -20 -41 -20 -48 0 -7 -13 -39 -30 -72 -16 -33 -30 -65 -30 -70 0 -6 -13 -37 -30 -70 -16 -33 -30 -65 -30 -71 0 -5 -9 -29 -20 -52 -11 -22 -20 -45 -20 -49 0 -5 -13 -35 -30 -68 -16 -33 -30 -65 -30 -71 0 -5 -9 -29 -20 -52 -11 -22 -20 -45 -20 -49 0 -5 -13 -35 -30 -68 -16 -33 -30 -65 -30 -71 0 -5 -9 -29 -20 -52 -11 -22 -20 -45 -20 -50 0 -5 -13 -36 -30 -70 -16 -34 -30 -66 -30 -70 0 -5 -9 -27 -20 -50 -11 -22 -20 -45 -20 -51 0 -5 -10 -29 -21 -53 -12 -23 -26 -53 -30 -65 -5 -13 -14 -35 -20 -50 -11 -27 -19 -46 -38 -95 -4 -13 -18 -43 -30 -66 -11 -24 -21 -52 -21 -63 0 -10 -4 -19 -10 -19 -5 0 -10 -7 -10 -15 0 -8 -4 -23 -9 -33 -5 -9 -13 -28 -19 -42 -5 -14 -19 -46 -31 -72 -12 -26 -21 -54 -21 -62 0 -8 -4 -18 -10 -21 -5 -3 -10 -17 -10 -31 0 -13 -4 -24 -10 -24 -5 0 -10 -9 -10 -19 0 -11 -4 -23 -10 -26 -5 -3 -10 -14 -10 -24 0 -9 -9 -36 -20 -59 -11 -22 -20 -48 -20 -56 0 -8 -4 -18 -10 -21 -5 -3 -10 -17 -10 -30 0 -13 -4 -27 -10 -30 -5 -3 -10 -17 -10 -31 0 -13 -4 -24 -10 -24 -5 0 -10 -9 -10 -19 0 -11 -4 -23 -10 -26 -5 -3 -10 -17 -10 -30 0 -13 -4 -27 -10 -30 -5 -3 -10 -15 -10 -26 0 -10 -4 -27 -9 -37 -16 -32 -30 -66 -51 -132 -11 -36 -25 -73 -30 -82 -6 -10 -10 -27 -10 -37 0 -11 -4 -23 -10 -26 -5 -3 -10 -16 -10 -29 0 -12 -4 -26 -8 -31 -4 -6 -14 -28 -21 -50 -7 -22 -16 -49 -21 -60 -5 -11 -18 -49 -30 -85 -12 -36 -25 -74 -30 -85 -4 -11 -14 -40 -21 -65 -7 -25 -16 -49 -21 -54 -4 -6 -8 -20 -8 -32 0 -13 -4 -26 -10 -29 -5 -3 -10 -17 -10 -29 0 -27 -27 -54 -39 -40 -5 5 -5 43 -1 84 9 87 23 856 24 1330 0 179 -5 687 -13 1130 -7 443 -15 1014 -17 1270 -2 256 -6 470 -8 476 -3 8 -144 11 -507 9 l-503 -2 -7 -24 c-3 -13 -16 -43 -27 -66 -12 -23 -22 -48 -22 -55 0 -7 -18 -49 -40 -93 -22 -44 -40 -85 -40 -90 0 -6 -13 -37 -30 -70 -16 -33 -30 -65 -30 -70 0 -6 -13 -37 -30 -70 -16 -33 -30 -65 -30 -70 0 -6 -13 -37 -30 -70 -16 -33 -30 -65 -30 -72 0 -7 -8 -27 -18 -45 -10 -18 -24 -49 -31 -68 -7 -19 -24 -57 -36 -85 -13 -27 -30 -66 -38 -85 -8 -19 -24 -56 -36 -82 -11 -26 -21 -52 -21 -56 0 -5 -14 -38 -31 -73 -18 -35 -35 -73 -39 -84 -4 -11 -17 -40 -29 -63 -11 -24 -21 -49 -21 -56 0 -6 -18 -47 -40 -91 -22 -44 -40 -85 -40 -90 0 -6 -13 -37 -30 -70 -16 -33 -30 -65 -30 -70 0 -6 -13 -37 -30 -70 -16 -33 -30 -65 -30 -70 0 -6 -13 -37 -30 -70 -16 -33 -30 -65 -30 -72 0 -7 -8 -27 -18 -45 -10 -18 -24 -49 -31 -68 -7 -19 -27 -64 -43 -100 -17 -36 -34 -74 -38 -85 -4 -11 -15 -37 -24 -57 -9 -21 -23 -55 -32 -75 -9 -21 -20 -47 -24 -58 -9 -25 -49 -114 -61 -137 -5 -10 -9 -25 -9 -33 0 -8 -4 -15 -10 -15 -5 0 -10 -7 -10 -15 0 -8 -4 -23 -9 -33 -9 -18 -28 -62 -42 -99 -5 -13 -13 -34 -19 -48 -5 -14 -14 -36 -20 -50 -24 -61 -33 -81 -41 -97 -5 -10 -9 -27 -9 -38 0 -11 -4 -20 -10 -20 -5 0 -10 -9 -10 -19 0 -11 -4 -23 -10 -26 -5 -3 -10 -17 -10 -31 0 -13 -4 -24 -10 -24 -5 0 -10 -9 -10 -19 0 -11 -4 -23 -10 -26 -5 -3 -10 -14 -10 -24 0 -9 -9 -36 -20 -59 -11 -22 -20 -48 -20 -56 0 -8 -4 -18 -10 -21 -5 -3 -10 -17 -10 -31 0 -13 -4 -24 -8 -24 -5 0 -15 -23 -22 -51 -8 -27 -18 -52 -22 -55 -4 -3 -8 -16 -8 -30 0 -13 -4 -24 -8 -24 -5 0 -15 -23 -22 -51 -8 -27 -18 -52 -22 -55 -4 -3 -8 -14 -8 -25 0 -10 -4 -27 -9 -37 -12 -23 -26 -60 -41 -102 -7 -19 -16 -44 -20 -55 -4 -11 -13 -36 -20 -55 -7 -19 -16 -44 -20 -55 -4 -11 -13 -36 -20 -55 -7 -19 -16 -45 -21 -57 -5 -13 -13 -33 -18 -45 -5 -13 -14 -38 -21 -55 -7 -18 -19 -33 -28 -33 -13 0 -14 19 -7 158 24 489 27 1813 5 2322 -5 118 -10 415 -12 658 -2 244 -6 446 -10 448 -4 3 -6 166 -6 362 1 197 -2 363 -6 370 -5 9 -119 12 -466 12 -252 0 -461 -3 -463 -7z"/>
    <path d="M26240 11744 c-63 -11 -119 -29 -170 -55 -93 -46 -230 -207 -230 -270 0 -10 -4 -21 -10 -24 -5 -3 -10 -30 -10 -60 0 -30 -4 -57 -10 -60 -5 -3 -10 -17 -10 -30 0 -13 5 -27 10 -30 6 -3 10 -30 10 -60 0 -30 5 -57 10 -60 6 -3 10 -14 10 -24 0 -23 26 -75 45 -91 8 -7 15 -18 15 -24 0 -15 62 -76 76 -76 6 0 19 -9 29 -20 10 -11 28 -20 41 -20 13 0 26 -4 29 -10 3 -5 17 -10 30 -10 13 0 27 -4 30 -10 3 -6 48 -10 100 -10 52 0 97 4 100 10 3 6 20 10 36 10 56 0 217 94 262 153 49 64 95 167 107 239 41 239 -79 447 -298 517 -38 12 -165 21 -202 15z"/>
    <path d="M7769 10385 c-3 -2 -50 -7 -104 -10 -55 -3 -104 -10 -109 -15 -6 -6 -34 -10 -62 -10 -29 0 -56 -4 -59 -10 -3 -5 -20 -10 -37 -10 -31 0 -87 -15 -120 -31 -10 -5 -25 -9 -35 -9 -21 0 -135 -39 -147 -51 -6 -5 -18 -9 -28 -9 -9 0 -33 -9 -53 -20 -20 -11 -40 -20 -45 -20 -15 0 -112 -47 -150 -72 -19 -13 -51 -31 -71 -41 -20 -9 -42 -23 -49 -32 -7 -8 -18 -15 -25 -15 -6 0 -20 -9 -30 -20 -10 -11 -22 -20 -26 -20 -13 0 -120 -84 -158 -124 -19 -20 -39 -36 -44 -36 -39 0 -397 -442 -397 -490 0 -5 -3 -10 -7 -10 -5 0 -13 -10 -19 -23 -6 -12 -34 -67 -63 -121 -28 -55 -51 -107 -51 -118 0 -10 -4 -18 -10 -18 -5 0 -10 -9 -10 -19 0 -11 -4 -23 -10 -26 -5 -3 -10 -15 -10 -26 0 -10 -4 -28 -10 -39 -5 -11 -14 -29 -20 -40 -5 -11 -10 -29 -10 -40 0 -11 -4 -28 -9 -38 -13 -24 -35 -112 -60 -237 -54 -265 -50 -611 9 -845 6 -25 14 -57 17 -73 3 -15 9 -30 14 -33 5 -3 9 -12 9 -20 0 -39 113 -259 158 -306 12 -14 22 -28 22 -33 0 -14 202 -215 216 -215 6 0 21 -12 35 -26 13 -14 40 -33 59 -41 19 -9 43 -23 52 -31 25 -21 109 -62 128 -62 9 0 20 -4 26 -9 13 -13 127 -51 152 -51 11 0 24 -4 27 -10 3 -5 21 -10 39 -10 17 0 36 -4 42 -10 5 -5 34 -11 64 -12 30 -1 63 -5 73 -10 25 -13 462 -11 485 1 11 6 22 8 25 5 6 -7 196 21 287 41 95 22 195 52 281 86 42 16 80 29 86 29 5 0 17 8 26 18 14 16 15 36 8 177 -5 88 -11 227 -14 308 -3 82 -8 151 -11 154 -3 3 -35 -7 -72 -21 -97 -39 -210 -76 -231 -76 -11 0 -23 -4 -28 -9 -10 -9 -57 -17 -150 -27 -27 -3 -59 -9 -70 -15 -23 -11 -293 -7 -360 5 -200 37 -386 163 -473 323 -35 65 -52 103 -52 117 0 8 -4 18 -10 21 -5 3 -10 17 -10 30 0 13 -4 26 -9 29 -33 21 -33 561 0 582 5 3 9 17 9 31 0 15 4 40 10 57 37 119 52 164 61 184 5 12 13 32 18 45 20 52 57 125 83 164 15 23 28 46 28 51 0 5 9 17 20 27 11 10 20 22 20 27 0 15 60 89 145 176 72 76 135 129 220 188 50 34 235 124 255 124 10 0 22 5 25 10 3 6 17 10 30 10 13 0 27 5 30 10 3 6 22 10 41 10 20 0 43 4 53 9 9 5 57 12 107 14 49 3 97 8 106 12 9 3 25 2 35 -3 10 -5 61 -10 113 -11 52 -1 99 -6 104 -11 6 -6 25 -10 42 -10 18 0 36 -4 39 -10 3 -5 21 -10 40 -10 19 0 37 -4 40 -10 3 -5 15 -10 25 -10 11 0 35 -9 54 -20 35 -19 36 -19 46 0 5 10 10 30 10 44 0 14 5 28 10 31 6 3 10 17 10 30 0 13 5 27 10 30 6 3 10 17 10 30 0 13 5 27 10 30 6 3 10 17 10 30 0 13 5 27 10 30 6 3 10 17 10 30 0 13 5 27 10 30 6 3 10 15 10 26 0 10 4 27 9 37 10 17 48 122 74 203 l14 45 -29 17 c-16 9 -36 17 -44 17 -8 0 -22 4 -32 9 -59 32 -253 72 -432 91 -100 10 -273 13 -281 5z"/>
    <path d="M10356 10381 c-3 -5 -39 -9 -81 -9 -41 -1 -84 -6 -94 -12 -11 -5 -38 -10 -60 -10 -22 0 -43 -4 -46 -10 -3 -5 -21 -10 -40 -10 -19 0 -37 -4 -40 -10 -3 -5 -17 -10 -31 -10 -14 0 -44 -9 -66 -20 -23 -11 -50 -20 -59 -20 -10 0 -21 -4 -24 -10 -3 -5 -12 -10 -20 -10 -18 0 -138 -56 -190 -89 -22 -14 -55 -34 -74 -44 -82 -45 -207 -149 -353 -294 -87 -86 -158 -162 -158 -168 0 -6 -13 -24 -30 -40 -16 -16 -30 -34 -30 -40 0 -7 -9 -20 -20 -30 -11 -10 -20 -23 -20 -30 0 -7 -9 -20 -20 -30 -11 -10 -20 -23 -20 -28 0 -6 -6 -18 -14 -26 -15 -18 -73 -121 -107 -191 -58 -122 -79 -170 -79 -184 0 -8 -4 -18 -10 -21 -5 -3 -10 -17 -10 -30 0 -13 -4 -27 -10 -30 -5 -3 -10 -17 -10 -30 0 -13 -4 -27 -10 -30 -5 -3 -10 -17 -10 -30 0 -13 -4 -27 -10 -30 -5 -3 -10 -21 -10 -40 0 -19 -4 -36 -9 -39 -8 -6 -15 -34 -32 -136 -5 -30 -15 -86 -22 -125 -7 -43 -11 -162 -10 -310 1 -244 7 -334 23 -370 5 -11 11 -36 14 -55 9 -63 22 -116 39 -150 9 -18 17 -41 17 -51 0 -10 5 -21 10 -24 6 -3 10 -13 10 -22 0 -23 63 -144 116 -221 49 -71 241 -272 260 -272 6 0 19 -9 29 -20 10 -11 24 -20 30 -20 7 0 18 -7 25 -15 28 -34 296 -145 349 -145 11 0 22 -4 25 -9 6 -10 57 -19 151 -27 33 -3 65 -10 71 -15 16 -13 480 -12 504 1 10 5 48 10 84 10 36 0 67 4 70 8 2 4 28 9 57 10 29 1 58 7 65 13 7 6 17 8 22 5 4 -2 26 0 48 5 21 5 50 12 64 15 14 2 32 7 40 10 8 3 26 8 40 10 50 10 288 94 361 128 93 43 103 54 95 103 -3 21 -8 67 -12 103 -3 36 -9 72 -14 80 -4 8 -8 42 -9 75 -1 33 -6 64 -11 69 -6 6 -10 43 -10 82 0 42 -5 76 -11 80 -6 3 -8 17 -5 30 9 33 -12 31 -81 -6 -30 -16 -59 -30 -64 -30 -6 0 -29 -9 -51 -20 -23 -11 -50 -20 -59 -20 -10 0 -21 -4 -24 -10 -3 -5 -17 -10 -30 -10 -13 0 -27 -4 -30 -10 -3 -5 -17 -10 -30 -10 -13 0 -27 -4 -30 -10 -3 -5 -21 -10 -40 -10 -19 0 -36 -4 -39 -9 -3 -4 -27 -11 -53 -14 -27 -3 -84 -12 -128 -19 -95 -15 -438 -16 -510 -1 -164 33 -308 113 -414 230 -33 37 -61 73 -61 80 0 6 -3 13 -7 15 -13 5 -53 88 -53 108 0 11 -4 21 -9 24 -9 6 -14 29 -31 141 -20 138 -23 210 -9 222 10 8 116 13 344 17 403 6 556 20 835 76 42 8 75 16 168 40 20 5 49 12 65 16 15 3 30 10 33 15 3 5 14 9 25 9 10 0 27 4 37 9 9 5 44 20 77 32 76 29 193 91 269 142 69 47 200 175 245 241 45 66 91 155 91 177 0 10 5 19 10 19 6 0 10 13 10 29 0 17 5 33 10 36 6 3 10 21 10 39 0 17 5 37 12 44 17 17 16 351 -2 422 -48 201 -127 339 -267 470 -86 80 -106 94 -213 148 -96 48 -186 82 -218 82 -11 0 -23 4 -26 9 -7 11 -68 21 -171 27 -44 3 -84 10 -89 15 -13 11 -213 12 -220 0z m169 -632 c5 -5 17 -9 27 -9 26 0 168 -84 168 -99 0 -4 8 -16 18 -27 41 -45 57 -96 60 -203 4 -100 3 -105 -29 -168 -35 -68 -123 -160 -178 -184 -17 -8 -31 -17 -31 -21 0 -5 -9 -8 -20 -8 -11 0 -20 -4 -20 -10 0 -5 -11 -10 -24 -10 -14 0 -28 -4 -31 -10 -3 -5 -17 -10 -30 -10 -13 0 -26 -4 -29 -9 -3 -4 -20 -11 -38 -15 -18 -3 -53 -11 -78 -17 -86 -20 -146 -29 -340 -49 -108 -11 -505 -21 -526 -13 -8 3 -14 12 -14 21 0 23 45 153 71 204 5 10 9 25 9 33 0 8 5 15 10 15 6 0 10 9 10 20 0 11 5 20 10 20 6 0 10 5 10 10 0 6 31 57 69 113 116 171 287 319 437 376 33 12 67 27 76 32 10 5 28 9 41 9 13 0 27 4 33 9 20 21 318 20 339 0z"/>
    <path d="M13900 10380 c-8 -5 -60 -10 -115 -10 -56 0 -105 -4 -110 -9 -6 -5 -37 -12 -70 -14 -33 -3 -85 -11 -115 -17 -30 -6 -72 -14 -93 -17 -20 -3 -40 -9 -43 -14 -3 -5 -15 -9 -26 -9 -23 0 -81 -17 -110 -31 -10 -5 -27 -9 -37 -9 -11 0 -23 -4 -26 -10 -3 -5 -13 -10 -21 -10 -8 0 -34 -9 -56 -20 -23 -11 -46 -20 -51 -20 -14 0 -236 -110 -242 -121 -4 -5 -25 -18 -49 -29 -23 -10 -49 -26 -56 -35 -7 -8 -17 -15 -22 -15 -11 0 -52 -30 -112 -82 -24 -21 -48 -38 -54 -38 -5 0 -76 -65 -156 -145 -136 -136 -227 -247 -319 -388 -70 -107 -157 -269 -157 -292 0 -8 -4 -15 -10 -15 -5 0 -10 -7 -10 -15 0 -8 -9 -30 -20 -50 -11 -20 -20 -44 -20 -55 0 -11 -4 -20 -8 -20 -4 0 -14 -21 -21 -47 -8 -27 -18 -55 -22 -63 -13 -27 -57 -186 -78 -280 -41 -192 -46 -240 -45 -530 1 -250 4 -290 34 -410 6 -25 14 -57 17 -73 3 -15 9 -30 14 -33 5 -3 9 -12 9 -20 0 -20 62 -150 94 -197 14 -21 26 -40 26 -43 0 -20 157 -194 175 -194 6 0 24 -13 40 -30 16 -16 34 -30 41 -30 6 0 17 -7 24 -15 15 -18 152 -85 174 -85 8 0 18 -4 21 -10 3 -5 21 -10 40 -10 19 0 37 -4 40 -10 3 -5 21 -10 39 -10 17 0 37 -5 42 -10 7 -7 71 -9 185 -7 181 5 257 13 273 28 6 5 19 9 30 9 46 0 251 86 327 138 161 108 236 175 360 324 47 56 171 244 190 286 8 17 17 32 21 32 5 0 8 7 8 15 0 8 7 15 16 15 18 0 17 -33 -7 -280 -12 -131 -26 -289 -35 -402 -5 -71 -3 -88 7 -88 8 0 177 -1 375 -4 199 -2 366 -1 372 3 6 4 10 112 11 289 0 156 3 288 7 293 3 5 10 67 15 137 19 265 67 620 118 877 6 28 15 74 21 103 5 28 14 73 20 100 5 26 14 72 20 102 5 30 14 75 19 100 5 25 14 72 21 105 7 33 16 80 21 105 5 25 12 65 15 90 3 25 9 54 14 65 5 11 11 38 15 60 4 22 11 60 16 85 5 25 12 69 15 98 4 29 11 55 15 58 5 3 9 25 9 49 0 24 5 47 10 50 6 3 10 26 10 50 0 24 5 47 10 50 6 3 10 25 10 49 0 23 4 46 9 52 5 5 11 27 14 49 4 22 11 63 16 90 40 196 49 253 41 266 -4 6 -26 13 -49 16 -23 3 -44 10 -47 14 -3 5 -20 9 -39 9 -19 0 -37 5 -40 10 -3 6 -26 10 -50 10 -24 0 -47 5 -50 10 -3 6 -25 10 -49 10 -23 0 -46 4 -52 9 -9 9 -57 16 -174 27 -36 3 -74 9 -85 14 -11 5 -76 12 -145 15 -344 14 -376 15 -390 5z m189 -653 l73 -11 -7 -41 c-3 -22 -11 -62 -16 -90 -5 -27 -12 -66 -15 -85 -3 -19 -9 -44 -14 -55 -5 -11 -11 -38 -15 -60 -4 -22 -10 -58 -15 -80 -4 -22 -13 -67 -20 -100 -7 -33 -16 -80 -22 -105 -5 -25 -12 -63 -15 -85 -3 -22 -9 -44 -14 -49 -5 -6 -9 -29 -9 -52 0 -24 -4 -46 -10 -49 -5 -3 -10 -25 -10 -49 0 -23 -4 -46 -9 -51 -5 -6 -12 -29 -15 -52 -15 -105 -19 -123 -27 -129 -5 -3 -9 -18 -9 -34 0 -16 -4 -32 -10 -35 -5 -3 -10 -17 -10 -30 0 -13 -4 -27 -10 -30 -5 -3 -10 -17 -10 -30 0 -13 -4 -27 -10 -30 -5 -3 -10 -15 -10 -26 0 -10 -4 -27 -9 -37 -5 -9 -13 -28 -19 -42 -46 -118 -155 -332 -178 -351 -8 -6 -14 -16 -14 -21 0 -21 -193 -247 -246 -288 -18 -14 -48 -37 -66 -52 -42 -34 -185 -108 -207 -108 -10 0 -22 -5 -28 -11 -16 -16 -231 -16 -274 0 -84 32 -128 60 -184 116 -58 58 -125 168 -125 206 0 10 -4 20 -9 23 -34 21 -34 621 0 642 5 3 9 18 9 34 0 16 4 39 9 52 5 13 19 57 32 98 12 41 26 79 31 85 4 5 8 17 8 26 0 9 9 34 19 56 11 21 33 65 49 98 95 195 179 314 330 468 100 102 184 169 287 229 58 34 175 88 189 88 8 0 17 4 20 9 3 5 18 11 33 14 16 3 48 11 73 17 115 29 344 32 499 7z"/>
    <path d="M17467 10383 c-5 -4 -43 -11 -85 -15 -113 -11 -161 -19 -168 -29 -3 -5 -15 -9 -26 -9 -27 0 -82 -17 -131 -41 -22 -11 -45 -19 -52 -19 -16 0 -143 -66 -166 -86 -8 -8 -20 -14 -26 -14 -5 0 -18 -9 -28 -20 -10 -11 -23 -20 -30 -20 -6 0 -24 -13 -40 -30 -16 -16 -34 -30 -40 -30 -14 0 -243 -233 -275 -280 -14 -19 -32 -44 -42 -54 -10 -11 -18 -26 -18 -33 0 -7 -7 -13 -16 -13 -14 0 -16 9 -10 68 6 73 21 201 36 327 6 44 13 113 16 153 l6 72 -363 -2 -364 -3 -7 -55 c-12 -101 -39 -290 -58 -410 -5 -36 -13 -90 -16 -120 -3 -30 -9 -64 -14 -75 -5 -11 -11 -42 -15 -70 -8 -66 -27 -171 -55 -305 -5 -25 -14 -71 -20 -102 -5 -32 -15 -84 -20 -115 -6 -32 -15 -78 -20 -103 -5 -25 -14 -71 -20 -102 -5 -32 -15 -84 -20 -115 -6 -32 -15 -78 -20 -103 -5 -25 -14 -71 -20 -102 -5 -32 -15 -84 -20 -115 -6 -32 -15 -78 -20 -103 -5 -25 -14 -71 -20 -102 -5 -32 -15 -84 -20 -115 -6 -32 -15 -78 -20 -103 -20 -98 -31 -157 -36 -208 -4 -29 -10 -55 -15 -58 -5 -3 -9 -25 -9 -49 0 -24 -4 -46 -9 -49 -5 -3 -11 -29 -15 -58 -5 -50 -11 -85 -36 -208 -25 -123 -31 -158 -36 -208 -4 -29 -10 -55 -15 -58 -5 -3 -9 -24 -9 -48 0 -23 -3 -46 -7 -50 -4 -4 -13 -35 -20 -69 -10 -48 -10 -63 0 -69 6 -4 192 -7 411 -5 343 2 400 4 407 17 10 19 45 225 55 320 3 25 9 54 14 65 5 11 11 38 14 60 3 22 10 65 15 95 6 30 15 80 21 110 5 30 14 78 19 105 6 28 15 76 21 108 5 31 15 83 20 115 11 56 17 88 40 207 6 33 16 85 21 115 5 30 14 78 19 105 6 28 14 75 20 105 22 129 36 191 60 275 6 22 14 52 17 68 3 15 9 30 14 33 5 3 9 16 9 29 0 13 5 27 10 30 6 3 10 14 10 24 0 16 26 79 50 123 6 10 10 23 10 30 0 7 9 24 20 38 11 14 20 30 20 37 0 7 14 32 30 56 17 25 30 47 30 51 0 13 93 139 160 216 30 34 59 68 63 76 4 8 12 14 18 14 5 0 28 17 50 37 43 40 146 109 194 132 17 7 38 17 47 22 10 5 25 9 33 9 8 0 23 4 33 9 43 23 146 31 222 16 105 -19 118 -24 179 -64 80 -53 126 -128 161 -261 18 -71 3 -463 -20 -515 -5 -11 -11 -40 -14 -65 -3 -25 -9 -67 -15 -95 -6 -27 -15 -76 -21 -107 -5 -32 -15 -84 -20 -115 -6 -32 -15 -79 -20 -105 -39 -191 -49 -246 -56 -298 -3 -25 -9 -54 -14 -65 -5 -11 -11 -38 -14 -60 -3 -22 -10 -65 -16 -95 -12 -58 -25 -139 -35 -205 -4 -22 -10 -49 -15 -60 -5 -11 -11 -38 -14 -60 -7 -60 -16 -106 -26 -145 -5 -19 -12 -51 -15 -70 -8 -57 -65 -342 -77 -381 -5 -19 -8 -46 -6 -60 l3 -24 410 0 410 0 31 159 c17 87 29 166 27 176 -3 10 0 21 6 24 6 4 11 26 11 50 0 23 4 46 9 52 8 8 13 33 27 152 3 26 9 56 14 67 5 11 11 38 14 60 3 22 10 63 15 90 26 126 33 163 37 205 3 25 9 54 14 65 5 11 11 38 14 60 5 37 11 70 36 193 11 55 26 135 40 212 5 30 14 80 20 110 6 30 15 78 20 105 5 28 14 73 19 100 24 118 32 163 37 215 3 30 9 64 14 75 14 31 20 120 26 355 6 208 -3 327 -27 372 -5 10 -9 26 -9 35 0 25 -26 95 -57 156 -105 210 -283 353 -508 409 -99 25 -344 46 -358 31z"/>
    <path d="M28275 10381 c-5 -5 -50 -12 -100 -15 -118 -6 -188 -16 -199 -27 -6 -5 -25 -9 -42 -9 -18 0 -36 -4 -39 -10 -3 -5 -17 -10 -30 -10 -13 0 -27 -4 -30 -10 -3 -5 -17 -10 -30 -10 -13 0 -27 -4 -30 -10 -3 -5 -14 -10 -24 -10 -26 0 -271 -127 -302 -156 -14 -13 -29 -24 -35 -24 -12 0 -202 -193 -237 -242 -38 -51 -117 -207 -117 -229 0 -10 -4 -21 -10 -24 -5 -3 -10 -17 -10 -30 0 -13 -4 -26 -9 -29 -15 -9 -22 -82 -27 -260 -4 -112 -2 -172 5 -179 6 -6 11 -26 11 -43 0 -18 5 -36 10 -39 6 -3 10 -14 10 -24 0 -26 86 -190 116 -222 13 -14 24 -29 24 -35 0 -13 163 -174 176 -174 6 0 19 -10 30 -21 18 -20 158 -119 168 -119 3 0 22 -11 42 -25 20 -13 62 -37 93 -52 91 -45 252 -156 313 -217 69 -70 107 -146 118 -234 9 -69 4 -152 -10 -187 -29 -73 -44 -97 -87 -142 -52 -55 -133 -113 -157 -113 -8 0 -18 -4 -21 -10 -3 -5 -15 -10 -26 -10 -10 0 -27 -4 -37 -9 -60 -32 -228 -37 -392 -11 -36 6 -83 13 -105 16 -22 3 -44 10 -50 15 -5 5 -17 9 -27 9 -10 0 -26 4 -36 9 -9 5 -37 15 -62 22 -25 7 -49 16 -55 21 -5 4 -17 8 -26 8 -9 0 -34 8 -56 18 -21 11 -77 38 -125 60 l-87 41 -10 -32 c-10 -31 -88 -254 -131 -372 -28 -78 -50 -134 -63 -162 -14 -32 2 -47 105 -99 126 -63 350 -136 458 -149 25 -2 68 -10 95 -15 28 -6 60 -8 72 -5 12 3 25 1 28 -5 8 -14 432 -14 440 0 3 6 35 10 70 10 35 0 67 5 70 10 3 6 26 10 50 10 24 0 47 5 50 10 3 6 21 10 40 10 19 0 37 5 40 10 3 6 17 10 30 10 13 0 27 5 30 10 3 6 17 10 30 10 13 0 27 5 30 10 3 6 14 10 23 10 22 0 237 107 253 126 6 8 17 14 24 14 6 0 20 9 30 20 10 11 23 20 29 20 15 0 216 202 216 216 0 6 9 19 20 29 11 10 20 22 20 26 0 5 12 25 26 46 31 46 66 122 83 183 7 25 17 54 21 65 23 55 42 262 34 375 -5 90 -16 144 -35 182 -5 10 -9 24 -9 32 0 20 -57 131 -101 196 -38 56 -192 212 -264 266 -77 59 -201 138 -270 174 -240 125 -389 244 -445 354 -21 42 -25 63 -25 141 0 51 5 103 11 116 6 13 17 37 25 52 30 64 112 138 194 176 17 7 38 17 47 22 10 5 28 9 41 9 13 0 28 5 35 12 16 16 379 15 395 -1 6 -6 30 -11 53 -11 24 0 46 -4 49 -10 3 -5 21 -10 40 -10 19 0 37 -4 40 -10 3 -5 15 -10 25 -10 11 0 35 -9 55 -20 20 -11 42 -20 50 -20 8 0 29 -9 47 -20 56 -34 63 -29 93 68 15 48 33 99 41 113 8 15 27 67 43 115 17 49 39 114 51 144 39 102 42 110 37 124 -5 13 -126 76 -147 76 -5 0 -18 4 -28 9 -53 29 -294 79 -422 88 -161 12 -315 14 -325 4z"/>
    <path d="M31195 10380 c-3 -5 -44 -10 -90 -10 -46 0 -87 -4 -90 -10 -3 -5 -26 -10 -50 -10 -24 0 -47 -4 -50 -10 -3 -5 -21 -10 -40 -10 -19 0 -37 -4 -40 -10 -3 -5 -17 -10 -31 -10 -14 0 -44 -9 -66 -20 -23 -11 -50 -20 -59 -20 -10 0 -21 -4 -24 -10 -3 -5 -13 -10 -21 -10 -19 0 -201 -87 -209 -100 -4 -6 -25 -19 -49 -30 -23 -10 -49 -26 -56 -35 -7 -8 -18 -15 -24 -15 -7 0 -25 -13 -41 -30 -16 -16 -34 -30 -40 -30 -6 0 -33 -22 -60 -50 -27 -27 -54 -50 -60 -50 -17 0 -255 -259 -255 -278 0 -5 -7 -15 -16 -23 -13 -10 -73 -100 -152 -224 -10 -17 -76 -150 -134 -268 -10 -22 -18 -47 -18 -57 0 -11 -4 -21 -8 -24 -5 -3 -19 -38 -31 -78 -13 -40 -27 -82 -31 -93 -10 -24 -20 -67 -27 -118 -3 -20 -9 -40 -14 -43 -5 -3 -9 -25 -9 -49 0 -24 -4 -46 -9 -49 -16 -10 -24 -150 -25 -401 0 -245 8 -370 25 -381 5 -3 9 -20 9 -39 0 -19 4 -44 9 -57 5 -13 14 -43 21 -68 7 -25 16 -55 21 -67 5 -13 13 -33 18 -45 28 -71 88 -186 117 -224 19 -24 34 -48 34 -52 0 -12 224 -232 236 -232 6 0 19 -9 29 -20 10 -11 24 -20 30 -20 7 0 18 -7 25 -15 13 -16 149 -85 167 -85 7 0 28 -9 48 -20 20 -11 44 -20 55 -20 10 0 22 -4 25 -10 3 -5 21 -10 40 -10 19 0 37 -4 40 -10 3 -5 26 -10 50 -10 24 0 47 -4 50 -10 3 -5 30 -10 59 -10 28 0 57 -5 62 -10 12 -12 479 -14 497 -3 7 4 41 9 77 10 36 2 72 6 80 10 8 3 33 8 55 10 44 3 235 42 248 50 4 2 20 7 35 9 55 10 243 72 256 85 6 5 17 9 25 9 9 0 43 14 76 30 33 17 65 30 72 30 31 0 31 37 2 266 -16 126 -32 257 -36 292 -3 34 -9 65 -13 67 -4 3 -34 -8 -66 -25 -77 -38 -148 -68 -204 -86 -25 -8 -53 -19 -62 -24 -10 -6 -26 -10 -36 -10 -10 0 -22 -4 -27 -9 -6 -5 -28 -11 -50 -14 -37 -6 -101 -18 -165 -31 -70 -15 -142 -19 -315 -19 -190 0 -291 8 -301 24 -3 5 -16 9 -29 9 -13 0 -27 5 -30 10 -3 6 -15 10 -25 10 -11 0 -36 10 -57 22 -21 11 -47 26 -58 32 -34 19 -129 92 -151 117 -24 28 -104 145 -104 154 0 3 -9 24 -19 48 -11 23 -22 56 -26 72 -22 105 -29 161 -30 245 l0 95 335 7 c402 8 586 25 845 77 28 6 65 13 83 17 18 3 35 10 38 15 3 5 20 9 39 9 19 0 37 5 40 10 3 6 17 10 31 10 14 0 44 9 66 20 23 11 48 20 55 20 7 0 28 9 48 20 20 11 41 20 48 20 18 0 154 69 167 85 7 8 18 15 25 15 6 0 20 9 30 20 10 11 23 20 29 20 15 0 216 202 216 216 0 7 7 17 15 24 22 19 105 195 105 224 0 14 5 28 10 31 6 3 10 21 10 39 0 17 6 38 12 44 16 16 16 375 1 394 -6 7 -10 21 -10 30 0 22 -24 100 -35 112 -4 6 -8 17 -8 26 0 21 -47 115 -65 130 -8 7 -15 17 -15 22 0 25 -137 179 -194 217 -21 14 -47 31 -56 36 -10 6 -25 17 -34 24 -27 22 -148 81 -167 81 -10 0 -21 5 -24 10 -3 6 -17 10 -30 10 -13 0 -27 5 -30 10 -3 6 -17 10 -30 10 -13 0 -27 5 -30 10 -3 6 -26 10 -50 10 -24 0 -47 5 -50 10 -3 6 -44 10 -90 10 -46 0 -87 5 -90 10 -3 6 -48 10 -100 10 -52 0 -97 -4 -100 -10z m170 -631 c5 -5 17 -9 26 -9 55 0 182 -105 213 -175 10 -22 22 -48 27 -57 12 -24 12 -195 -1 -203 -5 -3 -10 -17 -10 -31 0 -13 -4 -24 -10 -24 -5 0 -10 -6 -10 -12 -1 -46 -143 -171 -245 -217 -16 -7 -38 -17 -47 -22 -10 -5 -27 -9 -37 -9 -11 0 -22 -4 -25 -9 -3 -5 -20 -11 -38 -14 -18 -4 -49 -9 -68 -12 -19 -4 -44 -10 -55 -15 -11 -5 -42 -12 -70 -15 -27 -3 -86 -10 -130 -15 -143 -17 -615 -32 -629 -21 -14 11 -10 68 5 77 5 3 9 16 9 29 0 13 5 27 10 30 6 3 10 17 10 31 0 13 5 24 10 24 6 0 10 6 10 14 0 16 62 140 73 144 4 2 7 8 7 14 0 12 61 102 72 106 4 2 8 9 8 16 0 27 221 231 295 272 11 6 36 20 55 31 61 35 209 81 280 87 70 6 254 -4 265 -15z"/>
    <path d="M25680 10276 c0 -19 -4 -38 -10 -41 -5 -3 -10 -25 -10 -49 0 -23 -4 -46 -9 -51 -5 -6 -11 -30 -14 -55 -5 -42 -12 -78 -38 -205 -5 -27 -14 -75 -19 -105 -10 -63 -30 -166 -61 -315 -6 -27 -12 -70 -15 -95 -3 -25 -9 -54 -14 -65 -5 -11 -11 -38 -14 -60 -5 -37 -9 -60 -37 -197 -5 -29 -12 -73 -15 -98 -3 -25 -9 -54 -14 -65 -5 -11 -11 -38 -14 -60 -5 -37 -9 -60 -37 -197 -5 -29 -12 -73 -15 -98 -3 -25 -9 -54 -14 -65 -5 -11 -11 -38 -14 -60 -3 -22 -10 -64 -15 -92 -6 -29 -15 -75 -21 -103 -5 -27 -15 -74 -21 -102 -5 -29 -12 -73 -15 -98 -3 -25 -9 -54 -14 -65 -5 -11 -11 -38 -14 -60 -5 -38 -16 -97 -36 -195 -24 -115 -32 -159 -37 -205 -2 -27 -9 -54 -14 -59 -5 -6 -9 -28 -9 -51 0 -23 -4 -45 -9 -51 -5 -5 -11 -27 -14 -49 -3 -22 -8 -49 -11 -60 -6 -23 -44 -216 -57 -289 -4 -27 -6 -53 -3 -58 3 -4 187 -8 409 -8 457 0 417 -8 430 85 3 28 9 64 11 80 3 17 8 53 11 80 3 28 9 54 14 59 5 6 9 28 9 51 0 23 4 45 9 51 5 5 11 29 14 54 3 25 11 70 17 100 6 30 13 75 16 100 3 25 9 54 14 65 5 11 11 38 14 60 3 22 10 64 15 93 6 28 16 75 21 102 14 70 28 145 40 210 11 64 24 133 61 313 5 28 12 72 15 97 3 25 9 54 14 65 5 11 11 38 14 60 3 22 10 63 15 90 12 58 27 137 41 215 9 52 15 83 40 213 18 87 31 160 36 202 3 22 9 49 14 60 5 11 11 38 14 60 3 22 10 63 15 90 40 196 51 254 57 313 4 29 10 55 15 58 5 3 9 25 9 49 0 24 5 47 10 50 6 3 10 25 10 49 0 23 4 46 9 52 5 5 11 29 14 54 3 25 10 65 15 90 6 25 8 55 5 68 l-5 22 -404 0 -404 0 0 -34z"/>
    <path d="M29244 6852 c-99 -94 -251 -226 -384 -333 -36 -28 -82 -66 -102 -83 -21 -17 -60 -49 -88 -71 -28 -22 -72 -58 -100 -80 -27 -22 -67 -53 -90 -70 -22 -16 -58 -43 -80 -60 -197 -149 -352 -262 -401 -291 -11 -6 -27 -18 -36 -26 -24 -21 -560 -378 -568 -378 -3 0 -39 -22 -80 -50 -41 -27 -77 -50 -80 -50 -4 0 -26 -13 -50 -30 -24 -16 -48 -30 -53 -30 -5 0 -15 -7 -22 -15 -7 -8 -24 -21 -39 -28 -14 -8 -43 -23 -63 -35 -21 -12 -55 -32 -75 -43 -21 -12 -50 -30 -65 -40 -14 -11 -29 -19 -33 -19 -3 0 -25 -13 -48 -28 -23 -15 -55 -34 -72 -42 -16 -8 -48 -26 -70 -40 -22 -14 -53 -32 -70 -40 -16 -8 -49 -27 -72 -42 -23 -15 -48 -28 -55 -28 -8 0 -18 -4 -23 -9 -6 -5 -36 -23 -67 -40 -32 -17 -84 -45 -115 -62 -247 -135 -923 -470 -1148 -569 -22 -10 -71 -32 -110 -50 -38 -18 -89 -41 -112 -51 -24 -11 -64 -29 -90 -40 -27 -12 -57 -25 -68 -29 -11 -4 -42 -18 -70 -30 -27 -12 -59 -26 -70 -30 -11 -4 -42 -18 -70 -30 -27 -12 -59 -26 -70 -30 -11 -4 -42 -18 -70 -30 -27 -12 -60 -26 -72 -31 -13 -5 -33 -13 -45 -18 -35 -13 -70 -27 -103 -41 -16 -7 -40 -17 -52 -21 -29 -11 -65 -26 -100 -40 -16 -7 -38 -16 -50 -20 -13 -5 -34 -13 -48 -19 -14 -5 -37 -15 -52 -21 -31 -13 -65 -27 -103 -42 -14 -5 -33 -13 -42 -18 -10 -5 -25 -9 -33 -9 -8 0 -23 -4 -33 -9 -9 -5 -30 -14 -47 -21 -16 -7 -38 -16 -47 -21 -10 -5 -25 -9 -33 -9 -8 0 -24 -5 -35 -10 -11 -5 -29 -14 -40 -20 -11 -6 -27 -10 -35 -10 -8 0 -23 -4 -33 -9 -9 -5 -30 -14 -47 -21 -16 -7 -38 -16 -47 -21 -10 -5 -27 -9 -37 -9 -11 0 -23 -5 -26 -10 -3 -5 -17 -10 -30 -10 -13 0 -26 -4 -29 -8 -3 -4 -28 -14 -56 -22 -28 -8 -53 -18 -56 -22 -3 -4 -14 -8 -25 -8 -10 0 -28 -5 -39 -10 -11 -5 -29 -15 -40 -20 -11 -6 -29 -10 -39 -10 -11 0 -23 -5 -26 -10 -3 -5 -17 -10 -30 -10 -13 0 -27 -4 -30 -10 -3 -5 -17 -10 -30 -10 -13 0 -27 -5 -30 -10 -3 -5 -17 -10 -30 -10 -13 0 -27 -4 -30 -10 -3 -5 -17 -10 -30 -10 -13 0 -27 -5 -30 -10 -3 -5 -17 -10 -30 -10 -13 0 -27 -4 -30 -10 -3 -5 -17 -10 -30 -10 -13 0 -27 -4 -30 -10 -3 -5 -17 -10 -30 -10 -13 0 -27 -4 -30 -10 -3 -6 -17 -10 -30 -10 -13 0 -27 -5 -30 -10 -3 -6 -17 -10 -30 -10 -13 0 -27 -4 -30 -10 -3 -5 -17 -10 -30 -10 -13 0 -27 -4 -30 -10 -3 -6 -17 -10 -31 -10 -13 0 -32 -4 -42 -9 -9 -5 -37 -14 -62 -21 -25 -7 -53 -16 -62 -21 -10 -5 -27 -9 -37 -9 -11 0 -23 -4 -26 -10 -3 -6 -17 -10 -30 -10 -13 0 -27 -5 -30 -10 -3 -5 -16 -10 -27 -10 -23 0 -81 -17 -110 -31 -10 -5 -27 -9 -37 -9 -11 0 -23 -4 -26 -10 -3 -5 -19 -10 -35 -10 -16 0 -32 -5 -35 -10 -3 -5 -19 -10 -35 -10 -16 0 -32 -4 -35 -10 -3 -5 -19 -10 -35 -10 -16 0 -32 -4 -35 -10 -3 -6 -19 -10 -35 -10 -16 0 -32 -5 -35 -10 -3 -6 -19 -10 -35 -10 -16 0 -32 -4 -35 -10 -3 -5 -19 -10 -35 -10 -16 0 -32 -4 -35 -10 -3 -5 -16 -10 -27 -10 -23 0 -81 -17 -110 -31 -10 -5 -31 -9 -47 -9 -17 0 -33 -4 -36 -10 -3 -5 -16 -10 -27 -10 -23 0 -81 -17 -110 -31 -10 -5 -31 -9 -47 -9 -17 0 -33 -4 -36 -10 -3 -5 -21 -10 -40 -10 -19 0 -36 -4 -39 -9 -3 -5 -20 -11 -38 -14 -18 -3 -51 -10 -73 -16 -46 -12 -102 -26 -162 -41 -56 -13 -113 -27 -165 -41 -24 -6 -60 -13 -81 -16 -20 -3 -40 -9 -43 -14 -3 -5 -20 -9 -39 -9 -19 0 -36 -4 -39 -9 -3 -4 -25 -11 -48 -14 -24 -4 -63 -11 -88 -17 -25 -6 -58 -14 -75 -16 -16 -3 -39 -9 -50 -14 -11 -5 -36 -11 -55 -14 -19 -3 -78 -15 -130 -26 -52 -12 -115 -25 -140 -31 -25 -5 -65 -14 -90 -19 -88 -21 -131 -27 -136 -18 -3 4 2 8 11 8 8 0 23 4 33 10 17 9 110 51 187 85 46 20 109 48 215 97 41 20 93 43 115 52 22 10 48 22 58 27 24 13 9 5 447 223 217 108 415 208 440 222 25 15 88 49 140 76 52 27 99 53 105 57 5 5 35 22 65 38 30 17 76 42 103 57 26 14 66 37 90 50 23 13 66 37 95 55 29 17 55 31 57 31 2 0 24 14 48 30 25 17 48 30 52 30 3 0 26 14 50 30 24 17 46 30 50 30 4 0 26 14 50 30 24 17 46 30 49 30 2 0 37 22 78 48 40 27 78 51 83 53 21 8 207 129 509 332 394 262 433 290 758 532 51 38 299 230 346 268 26 20 63 50 82 65 33 25 65 51 190 157 26 22 80 67 120 100 41 33 104 87 141 120 37 33 118 105 180 160 136 121 581 548 682 654 57 61 228 191 250 191 11 0 262 171 269 184 5 8 0 20 -12 31 -11 10 -20 23 -20 28 0 6 -7 18 -16 28 -15 17 -18 16 -65 -17 -27 -19 -52 -34 -57 -34 -5 0 -21 14 -37 30 -16 17 -34 30 -41 30 -7 0 -35 -24 -61 -52 -126 -139 -231 -242 -265 -259 -20 -10 -57 -32 -81 -49 -25 -16 -48 -30 -52 -30 -3 0 -26 -13 -50 -30 -24 -16 -46 -30 -48 -30 -3 0 -35 -18 -71 -40 -36 -22 -69 -40 -73 -40 -3 0 -14 -6 -22 -14 -9 -7 -41 -26 -71 -42 -30 -15 -66 -36 -80 -45 -14 -9 -61 -35 -105 -59 -44 -23 -84 -45 -90 -50 -5 -4 -53 -30 -105 -57 -52 -28 -115 -61 -140 -75 -87 -49 -304 -161 -390 -202 -30 -14 -66 -32 -80 -40 -30 -17 -364 -180 -465 -226 -38 -18 -101 -47 -140 -65 -73 -34 -161 -74 -232 -106 -24 -10 -64 -29 -90 -40 -27 -12 -57 -25 -68 -29 -11 -4 -41 -17 -67 -29 -27 -11 -69 -31 -95 -42 -49 -22 -83 -36 -118 -49 -11 -4 -42 -18 -70 -30 -27 -12 -60 -26 -72 -31 -13 -5 -34 -13 -48 -19 -14 -5 -36 -14 -50 -20 -14 -5 -35 -14 -47 -19 -28 -10 -117 -50 -140 -62 -10 -5 -24 -9 -33 -9 -8 0 -30 -9 -50 -20 -20 -11 -42 -20 -50 -20 -9 0 -23 -4 -33 -9 -9 -5 -30 -14 -47 -21 -16 -7 -38 -16 -47 -21 -10 -5 -23 -9 -28 -9 -6 0 -30 -9 -52 -20 -23 -11 -48 -20 -55 -20 -7 0 -21 -4 -31 -9 -9 -5 -30 -14 -47 -21 -16 -7 -38 -16 -47 -21 -10 -5 -27 -9 -37 -9 -11 0 -23 -4 -26 -10 -3 -5 -15 -10 -26 -10 -10 0 -27 -4 -37 -9 -9 -5 -30 -14 -47 -21 -16 -7 -38 -16 -47 -21 -10 -5 -27 -9 -37 -9 -11 0 -23 -4 -26 -10 -3 -5 -15 -10 -26 -10 -10 0 -28 -4 -39 -10 -11 -5 -29 -14 -40 -20 -11 -6 -27 -10 -35 -10 -8 0 -24 -4 -35 -10 -11 -6 -29 -15 -40 -20 -11 -6 -29 -10 -39 -10 -11 0 -23 -4 -26 -10 -3 -6 -17 -10 -30 -10 -13 0 -27 -4 -30 -10 -3 -6 -15 -10 -26 -10 -10 0 -28 -4 -39 -10 -11 -6 -29 -14 -40 -20 -11 -6 -29 -10 -40 -10 -11 0 -29 -4 -40 -10 -11 -5 -29 -14 -40 -20 -11 -5 -29 -10 -39 -10 -11 0 -23 -4 -26 -10 -3 -5 -19 -10 -35 -10 -16 0 -32 -4 -35 -10 -3 -5 -17 -10 -30 -10 -13 0 -27 -4 -30 -10 -3 -5 -17 -10 -30 -10 -13 0 -27 -4 -30 -10 -3 -5 -17 -10 -30 -10 -13 0 -27 -4 -30 -10 -3 -6 -17 -10 -30 -10 -13 0 -27 -4 -30 -10 -3 -5 -17 -10 -30 -10 -13 0 -27 -4 -30 -10 -3 -5 -19 -10 -35 -10 -16 0 -32 -5 -35 -10 -3 -5 -19 -10 -35 -10 -16 0 -32 -5 -35 -10 -3 -6 -17 -10 -30 -10 -13 0 -27 -5 -30 -10 -3 -6 -17 -10 -30 -10 -13 0 -27 -5 -30 -10 -3 -6 -21 -10 -40 -10 -19 0 -37 -5 -40 -10 -3 -6 -17 -10 -30 -10 -13 0 -27 -5 -30 -10 -3 -6 -19 -10 -35 -10 -16 0 -32 -5 -35 -10 -3 -6 -19 -10 -35 -10 -16 0 -32 -4 -35 -10 -3 -5 -19 -10 -35 -10 -16 0 -32 -5 -35 -10 -3 -6 -19 -10 -35 -10 -16 0 -32 -5 -35 -10 -3 -6 -19 -10 -35 -10 -16 0 -32 -4 -35 -10 -3 -5 -19 -10 -35 -10 -16 0 -32 -5 -35 -10 -3 -6 -19 -10 -35 -10 -16 0 -32 -4 -35 -10 -3 -6 -19 -10 -35 -10 -16 0 -32 -4 -35 -10 -3 -5 -21 -10 -40 -10 -19 0 -36 -4 -39 -9 -3 -5 -22 -12 -41 -15 -19 -3 -51 -9 -70 -12 -19 -3 -38 -10 -41 -15 -3 -5 -18 -9 -34 -9 -16 0 -32 -4 -35 -10 -3 -5 -24 -10 -45 -10 -21 0 -42 -5 -45 -10 -3 -6 -19 -10 -35 -10 -16 0 -32 -5 -35 -10 -3 -6 -21 -10 -40 -10 -19 0 -37 -5 -40 -10 -3 -6 -21 -10 -40 -10 -19 0 -37 -5 -40 -10 -3 -6 -21 -10 -40 -10 -19 0 -37 -4 -40 -10 -3 -5 -21 -10 -40 -10 -19 0 -37 -4 -40 -10 -3 -5 -24 -10 -45 -10 -21 0 -42 -4 -45 -10 -3 -5 -24 -10 -45 -10 -21 0 -42 -4 -45 -10 -3 -5 -21 -10 -40 -10 -19 0 -37 -5 -40 -10 -3 -5 -24 -10 -45 -10 -21 0 -42 -5 -45 -10 -3 -6 -24 -10 -45 -10 -21 0 -42 -4 -45 -10 -3 -5 -21 -10 -40 -10 -19 0 -37 -4 -40 -10 -3 -5 -25 -10 -49 -10 -23 0 -46 -4 -52 -9 -5 -5 -27 -11 -49 -14 -69 -10 -109 -18 -130 -27 -11 -5 -40 -11 -65 -14 -76 -10 -114 -17 -135 -26 -11 -5 -40 -11 -65 -14 -77 -10 -114 -17 -135 -26 -11 -5 -40 -11 -65 -14 -25 -3 -70 -10 -100 -16 -87 -17 -151 -28 -205 -35 -27 -4 -59 -10 -70 -15 -11 -5 -40 -11 -65 -14 -42 -5 -80 -11 -227 -36 -32 -5 -87 -14 -123 -19 -36 -6 -96 -15 -135 -21 -38 -7 -97 -16 -130 -20 -33 -5 -96 -14 -140 -20 -181 -26 -454 -61 -612 -79 -328 -38 -606 -66 -798 -81 -419 -33 -492 -38 -955 -61 -299 -15 -1564 -15 -1850 0 -569 29 -1073 72 -1430 121 -41 6 -111 15 -155 21 -44 6 -109 14 -145 20 -36 5 -92 12 -125 15 -33 3 -64 10 -70 15 -5 5 -33 9 -61 9 -29 0 -56 5 -59 10 -3 6 -30 10 -59 10 -28 0 -56 4 -61 9 -6 5 -30 11 -55 14 -25 3 -71 9 -103 13 -31 3 -60 10 -63 15 -3 5 -25 9 -49 9 -24 0 -47 5 -50 10 -3 6 -26 10 -50 10 -24 0 -46 4 -49 9 -3 4 -25 11 -48 15 -24 3 -65 11 -93 16 -27 6 -66 13 -85 16 -19 3 -44 9 -55 14 -11 5 -33 11 -50 14 -16 2 -49 10 -72 15 -24 6 -61 16 -83 21 -22 6 -59 15 -82 20 -24 6 -61 16 -83 21 -22 6 -55 13 -73 16 -18 3 -35 9 -38 14 -3 5 -20 9 -39 9 -19 0 -37 5 -40 10 -3 6 -17 10 -30 10 -13 0 -27 5 -30 10 -3 6 -21 10 -40 10 -19 0 -37 5 -40 10 -3 6 -17 10 -30 10 -13 0 -27 5 -30 10 -3 6 -21 10 -40 10 -19 0 -37 5 -40 10 -3 6 -17 10 -30 10 -13 0 -27 5 -30 10 -3 6 -17 10 -30 10 -13 0 -27 4 -30 10 -3 5 -17 10 -30 10 -13 0 -27 4 -30 10 -3 6 -17 10 -31 10 -13 0 -33 4 -44 10 -11 6 -29 15 -40 20 -11 6 -29 10 -40 10 -11 0 -29 5 -40 10 -11 6 -29 15 -40 20 -11 6 -29 10 -39 10 -11 0 -23 5 -26 10 -3 6 -15 10 -26 10 -10 0 -27 4 -37 9 -9 5 -30 14 -47 21 -16 7 -38 16 -47 21 -10 5 -25 9 -33 9 -8 0 -23 4 -33 9 -19 10 -79 34 -144 60 -13 4 -36 14 -53 21 -16 7 -39 16 -50 20 -11 4 -42 18 -70 30 -27 12 -59 26 -70 30 -35 13 -297 136 -370 173 -136 69 -265 137 -300 157 -22 13 -64 36 -93 51 -30 16 -66 38 -82 49 -15 11 -31 20 -34 20 -4 0 -40 22 -81 50 -41 27 -77 50 -80 50 -8 0 -180 116 -250 169 -33 25 -83 61 -110 80 -28 19 -66 48 -86 65 -20 17 -67 56 -105 86 -203 164 -378 332 -536 515 -145 168 -178 209 -213 259 -19 28 -59 85 -88 126 -114 160 -345 579 -329 595 4 4 10 48 15 98 4 51 10 120 13 155 6 61 5 62 -19 62 -13 0 -39 3 -56 6 -28 6 -31 4 -31 -18 0 -32 -8 -40 -32 -27 -25 14 -135 -18 -118 -35 5 -5 10 -20 10 -32 0 -13 4 -26 10 -29 5 -3 10 -17 10 -30 0 -13 5 -27 10 -30 6 -3 10 -15 10 -25 0 -11 8 -34 18 -52 25 -47 43 -110 33 -122 -11 -16 -16 -122 -16 -361 0 -262 19 -535 45 -653 6 -23 10 -54 10 -68 0 -15 4 -43 9 -63 5 -20 15 -63 21 -96 7 -33 23 -105 37 -160 14 -55 28 -115 30 -133 3 -18 9 -35 14 -38 5 -3 9 -16 9 -29 0 -13 4 -27 10 -30 5 -3 10 -19 10 -35 0 -16 5 -32 10 -35 6 -3 10 -16 10 -29 0 -12 5 -27 11 -33 6 -6 10 -16 7 -23 -3 -11 -196 183 -299 301 -64 75 -167 206 -224 289 -115 165 -145 210 -145 214 0 3 -13 25 -30 49 -16 25 -30 48 -30 52 0 4 -8 19 -19 33 -10 15 -48 86 -84 157 -70 142 -91 187 -126 278 -8 22 -22 56 -40 100 -16 36 -72 200 -76 222 -2 11 -11 45 -21 75 -28 95 -51 201 -61 273 -6 53 -23 68 -54 49 -10 -7 -33 -12 -50 -12 -29 0 -31 -2 -24 -27 4 -16 9 -48 12 -73 3 -25 9 -49 14 -55 5 -5 9 -28 9 -50 0 -23 3 -45 8 -49 4 -4 7 -15 8 -24 1 -37 17 -103 25 -108 5 -3 9 -14 9 -25 0 -18 47 -174 71 -236 18 -46 32 -78 40 -95 5 -10 9 -22 9 -28 0 -6 9 -32 21 -58 34 -75 80 -175 92 -197 6 -11 27 -51 47 -90 20 -38 51 -94 68 -123 18 -29 32 -55 32 -57 0 -9 169 -256 237 -345 162 -214 261 -326 502 -563 129 -127 217 -222 227 -245 48 -108 157 -315 214 -407 23 -38 48 -79 54 -90 36 -64 191 -284 279 -393 107 -133 178 -213 347 -385 168 -171 234 -232 409 -379 57 -49 313 -245 342 -263 9 -5 78 -52 154 -102 75 -51 139 -93 142 -93 3 0 17 -8 31 -19 15 -10 44 -28 65 -40 20 -11 54 -31 75 -43 20 -11 60 -33 87 -48 28 -15 79 -43 115 -63 70 -39 243 -125 380 -189 82 -39 113 -53 155 -68 26 -10 109 -47 158 -71 22 -11 45 -19 53 -19 7 0 29 -9 49 -20 20 -11 42 -20 50 -20 15 0 26 -4 72 -28 13 -7 30 -12 38 -12 8 0 24 -4 35 -10 11 -5 29 -14 40 -20 11 -5 27 -10 35 -10 8 0 24 -5 35 -10 11 -5 29 -15 40 -20 11 -6 29 -10 39 -10 11 0 23 -5 26 -10 3 -6 17 -10 30 -10 13 0 27 -4 30 -10 3 -5 17 -10 30 -10 13 0 27 -4 30 -10 3 -5 19 -10 35 -10 16 0 32 -5 35 -10 3 -6 15 -10 26 -10 10 0 27 -4 37 -9 29 -14 87 -31 110 -31 11 0 24 -5 27 -10 3 -5 17 -10 30 -10 13 0 27 -4 30 -10 3 -5 21 -10 40 -10 19 0 37 -4 40 -10 3 -5 19 -10 35 -10 16 0 32 -4 35 -10 3 -5 21 -10 40 -10 19 0 36 -4 39 -9 6 -8 31 -14 119 -27 20 -4 40 -10 43 -15 3 -5 23 -9 44 -9 21 0 41 -4 44 -9 3 -5 23 -11 43 -14 21 -3 58 -10 83 -16 96 -23 224 -48 290 -57 25 -3 54 -9 65 -14 11 -5 43 -11 70 -15 28 -3 75 -11 105 -16 90 -16 160 -27 245 -39 44 -6 109 -16 145 -21 36 -5 103 -14 150 -19 47 -5 126 -14 175 -20 234 -27 482 -48 735 -61 284 -16 1469 -16 1725 -1 471 28 654 44 1165 102 280 31 799 109 1070 160 30 6 80 15 110 20 30 5 78 14 105 19 28 6 74 15 103 21 49 9 76 15 205 41 28 5 70 12 92 16 22 3 44 9 50 14 5 5 25 9 45 9 20 0 40 4 45 9 6 5 28 11 50 14 69 10 109 18 130 27 11 5 36 11 55 14 19 2 55 10 80 16 25 6 62 14 83 17 20 3 40 9 43 14 3 5 20 9 39 9 19 0 37 4 40 10 3 5 21 10 40 10 19 0 37 4 40 10 3 5 21 10 40 10 19 0 37 5 40 10 3 5 21 10 40 10 19 0 37 5 40 10 3 6 21 10 40 10 19 0 37 5 40 10 3 6 16 10 27 10 23 0 81 17 110 31 10 5 31 9 47 9 17 0 33 4 36 10 3 5 16 10 27 10 23 0 81 17 110 31 10 5 25 9 35 9 16 0 67 14 108 31 11 4 45 13 75 20 30 7 59 16 64 21 6 4 20 8 32 8 13 0 26 4 29 10 3 5 17 10 31 10 13 0 32 4 42 9 9 5 37 14 62 21 25 7 53 16 62 21 10 5 27 9 37 9 11 0 23 4 26 10 3 5 17 10 30 10 13 0 27 5 30 10 3 6 17 10 30 10 13 0 37 5 52 11 44 18 65 25 108 38 22 7 49 16 60 20 11 5 38 14 60 20 22 7 49 16 60 20 11 5 38 14 60 20 41 13 77 27 107 42 10 5 27 9 37 9 11 0 23 4 26 10 3 5 17 10 30 10 13 0 27 4 30 10 3 5 16 10 29 10 12 0 26 4 32 8 5 4 27 14 49 21 42 13 78 27 107 42 10 5 25 9 33 9 8 0 23 4 33 9 9 5 31 14 47 21 17 7 38 16 47 21 10 5 25 9 33 9 8 0 23 4 33 9 9 5 28 13 42 18 14 6 37 15 53 22 63 26 74 30 106 40 19 6 45 11 59 11 14 0 39 4 56 9 17 6 65 15 106 21 41 7 84 16 95 20 11 5 40 11 65 14 46 6 110 18 190 35 74 15 163 33 195 38 17 2 39 8 50 13 11 5 36 11 55 14 19 3 55 9 80 15 25 5 63 12 85 16 22 4 49 10 60 15 18 8 46 13 130 27 17 2 39 8 50 13 11 5 36 11 55 14 19 3 55 11 80 17 25 6 62 13 83 16 20 3 40 9 43 14 3 5 20 9 39 9 19 0 37 4 40 10 3 5 21 10 40 10 19 0 37 4 40 10 3 6 21 10 39 10 17 0 36 4 42 9 5 5 27 11 49 14 22 3 58 10 80 15 136 34 172 44 187 53 10 5 31 9 47 9 17 0 33 4 36 10 3 5 21 10 40 10 19 0 37 4 40 10 3 6 21 10 40 10 19 0 37 5 40 10 3 6 16 10 27 10 23 0 81 17 110 31 10 5 31 9 47 9 17 0 33 4 36 10 3 6 16 10 27 10 23 0 81 17 110 31 10 5 31 9 47 9 17 0 33 4 36 10 3 5 17 10 30 10 13 0 27 4 30 10 3 6 21 10 40 10 19 0 37 5 40 10 3 6 17 10 30 10 13 0 27 5 30 10 3 5 16 10 27 10 23 0 81 17 110 31 10 5 27 9 37 9 11 0 23 5 26 10 3 6 19 10 35 10 16 0 32 5 35 10 3 5 19 10 35 10 16 0 32 4 35 10 3 6 17 10 30 10 13 0 27 5 30 10 3 5 17 10 30 10 13 0 27 5 30 10 3 6 19 10 35 10 16 0 32 5 35 10 3 5 19 10 35 10 16 0 32 4 35 10 3 6 17 10 30 10 13 0 27 5 30 10 3 5 17 10 30 10 13 0 27 5 30 10 3 6 17 10 30 10 13 0 27 4 30 10 3 6 19 10 35 10 16 0 32 5 35 10 3 6 15 10 26 10 10 0 28 4 39 10 11 5 29 14 40 20 11 5 29 10 39 10 11 0 23 4 26 10 3 6 19 10 36 10 16 0 29 5 29 10 0 6 11 10 25 10 14 0 34 4 45 10 11 5 29 15 40 20 11 5 29 10 39 10 11 0 23 4 26 10 3 6 17 10 30 10 13 0 27 5 30 10 3 6 17 10 30 10 13 0 27 5 30 10 3 6 15 10 26 10 10 0 28 4 39 10 11 6 29 15 40 20 11 5 29 10 40 10 11 0 20 5 20 10 0 6 11 10 24 10 14 0 28 4 31 10 3 6 15 10 26 10 10 0 28 4 39 10 11 6 29 15 40 20 11 5 27 10 35 10 8 0 24 4 35 10 11 6 29 15 40 20 11 5 27 10 35 10 8 0 23 4 33 9 9 5 31 14 47 21 17 7 38 16 47 21 10 5 25 9 33 9 8 0 23 4 33 9 16 8 36 17 97 41 61 24 81 33 97 41 10 5 25 9 33 9 8 0 23 4 33 9 16 8 36 17 97 41 14 6 36 15 50 20 14 6 37 15 53 21 15 7 36 15 47 19 11 4 40 17 63 29 24 11 50 21 57 21 7 0 33 10 57 21 23 12 52 25 63 29 11 4 43 18 70 30 28 12 59 26 70 30 11 4 41 17 68 29 26 11 68 31 95 42 26 12 56 25 67 29 11 4 41 17 68 29 58 26 123 55 180 80 75 33 331 152 370 172 9 5 25 13 35 18 9 5 55 27 102 49 203 95 736 367 865 442 22 13 63 35 90 50 28 15 68 37 90 50 22 13 63 35 90 50 28 15 67 37 88 48 20 12 54 32 75 43 20 12 49 30 64 40 14 11 29 19 33 19 3 0 26 14 50 30 24 17 46 30 50 30 4 0 26 14 50 30 24 17 46 30 50 30 4 0 26 14 50 30 24 17 46 30 50 30 4 0 26 14 50 30 24 17 48 30 53 30 5 0 17 9 27 20 10 11 22 20 27 20 5 0 42 23 83 50 41 28 78 50 83 50 5 0 17 9 27 20 10 11 23 20 30 20 7 0 20 9 30 20 10 11 23 20 30 20 7 0 20 9 30 20 10 11 23 20 30 20 7 0 20 9 30 20 10 11 24 20 30 20 7 0 19 7 26 16 7 9 22 20 34 25 11 5 61 38 110 74 50 35 120 86 157 112 128 91 440 325 518 388 28 22 72 58 100 80 28 22 72 58 99 80 26 22 81 67 121 100 129 107 291 252 327 294 19 23 40 41 47 41 6 0 31 19 54 43 l42 43 -43 42 c-23 23 -47 42 -52 42 -6 0 -56 -44 -111 -98z m-25221 -855 c86 -167 274 -443 426 -622 28 -33 75 -89 105 -125 144 -174 458 -456 736 -663 80 -59 153 -115 163 -123 9 -7 19 -14 22 -14 3 0 66 -40 141 -90 74 -49 137 -90 140 -90 3 0 25 -13 49 -30 24 -16 46 -30 50 -30 3 0 24 -12 48 -27 23 -15 60 -37 82 -49 22 -11 69 -37 105 -57 108 -59 410 -208 548 -268 23 -11 63 -29 90 -40 26 -12 56 -25 67 -29 11 -4 40 -17 63 -29 24 -11 50 -21 58 -21 7 0 29 -9 49 -20 20 -11 42 -20 50 -20 9 0 23 -4 33 -9 9 -5 29 -14 45 -20 15 -6 39 -16 55 -22 15 -6 35 -15 44 -20 10 -5 25 -9 33 -9 8 0 24 -5 35 -10 11 -5 29 -14 40 -20 11 -5 29 -10 39 -10 11 0 23 -4 26 -10 3 -6 17 -10 30 -10 13 0 27 -4 30 -10 3 -5 17 -10 30 -10 13 0 27 -4 30 -10 3 -5 17 -10 30 -10 13 0 27 -4 30 -10 3 -5 17 -10 30 -10 13 0 27 -4 30 -10 3 -5 17 -10 30 -10 13 0 27 -4 30 -10 3 -6 15 -10 26 -10 10 0 27 -4 37 -9 29 -14 87 -31 110 -31 11 0 24 -5 27 -10 3 -5 17 -10 30 -10 13 0 27 -5 30 -10 3 -6 21 -10 40 -10 19 0 37 -5 40 -10 3 -5 17 -10 30 -10 13 0 27 -4 30 -10 3 -5 19 -10 36 -10 16 0 37 -4 47 -9 15 -9 66 -23 185 -52 20 -5 55 -13 77 -19 81 -20 126 -30 160 -36 19 -3 44 -9 55 -14 20 -8 55 -16 125 -26 19 -3 44 -9 55 -14 11 -5 38 -11 60 -15 22 -4 60 -11 85 -16 104 -23 147 -30 190 -35 25 -3 54 -9 65 -14 11 -5 38 -11 60 -14 52 -7 144 -22 220 -36 84 -15 195 -32 393 -59 37 -5 103 -15 147 -21 44 -6 118 -15 165 -21 47 -5 123 -14 170 -19 100 -12 263 -28 410 -40 58 -5 137 -11 175 -14 94 -8 194 -14 418 -26 103 -5 191 -11 196 -14 5 -3 291 -8 637 -10 594 -5 1056 3 1419 24 88 5 210 11 270 14 61 3 135 8 165 12 30 3 111 9 180 14 142 11 323 27 455 40 50 6 133 14 185 20 52 5 136 14 185 20 211 25 254 29 320 35 39 3 79 10 90 15 11 5 49 11 85 14 36 4 97 10 135 16 39 5 104 14 145 19 84 11 185 27 275 42 33 5 83 12 110 15 28 3 59 9 70 14 11 5 45 11 75 14 30 3 80 10 110 16 78 15 168 30 220 36 25 3 54 9 65 14 11 5 39 11 63 14 23 3 61 9 85 12 23 3 51 9 62 14 11 5 40 11 65 14 43 5 77 11 195 36 79 16 157 31 198 37 20 3 40 9 43 14 3 5 24 9 48 9 23 0 46 4 51 9 6 5 28 11 50 14 69 10 109 18 130 27 11 5 36 11 55 14 71 10 105 18 125 26 11 5 36 11 55 14 19 2 55 10 80 16 25 6 62 14 83 17 20 3 40 9 43 14 3 5 20 9 39 9 19 0 37 5 40 10 3 6 21 10 40 10 19 0 37 5 40 10 3 5 24 10 45 10 21 0 42 5 45 10 3 6 18 10 32 10 27 0 84 16 115 31 10 5 31 9 47 9 17 0 33 5 36 10 3 6 21 10 40 10 19 0 37 5 40 10 3 5 21 10 40 10 19 0 37 5 40 10 3 6 17 10 31 10 13 0 32 4 42 9 9 5 44 15 77 22 33 7 64 16 70 21 5 4 22 8 37 8 16 0 36 4 46 9 29 14 87 31 110 31 11 0 24 5 27 10 3 6 19 10 35 10 16 0 32 5 35 10 3 5 19 10 35 10 16 0 32 4 35 10 3 6 17 10 30 10 13 0 27 5 30 10 3 6 21 10 40 10 19 0 37 5 40 10 3 6 17 10 30 10 13 0 27 5 30 10 3 6 16 10 27 10 23 0 81 17 110 31 10 5 27 9 37 9 11 0 23 5 26 10 3 6 17 10 31 10 13 0 32 4 42 9 9 5 37 14 62 21 25 7 53 16 62 21 10 5 27 9 37 9 11 0 23 5 26 10 3 6 17 10 30 10 13 0 27 5 30 10 3 6 17 10 30 10 13 0 27 5 30 10 3 6 17 10 30 10 13 0 27 5 30 10 3 6 17 10 30 10 13 0 37 5 52 11 44 18 65 25 108 38 22 7 49 16 60 20 11 5 38 14 60 20 38 12 50 16 105 39 14 5 45 16 70 23 25 7 49 16 55 21 5 4 19 8 31 8 13 0 26 5 29 10 3 6 15 10 26 10 10 0 28 5 39 10 11 6 29 15 40 20 11 6 27 10 35 10 8 0 24 4 35 10 11 6 29 15 40 20 11 6 27 10 35 10 8 0 23 4 33 9 9 5 31 14 47 21 17 7 38 16 47 21 10 5 27 9 37 9 11 0 23 5 26 10 3 6 15 10 26 10 10 0 27 4 37 9 9 5 28 13 42 18 14 6 37 15 53 22 15 6 39 16 55 22 15 6 35 15 44 20 10 5 25 9 33 9 8 0 23 4 33 9 16 8 36 17 97 41 14 6 36 15 50 20 14 6 36 15 50 20 14 6 36 15 50 20 14 6 36 15 50 20 14 6 35 14 48 19 12 5 45 19 72 31 28 12 60 26 73 31 12 5 34 14 50 20 15 7 36 15 47 19 11 4 43 18 70 30 28 12 59 26 70 30 11 4 40 17 65 28 25 11 62 27 83 36 20 9 54 23 75 32 20 9 56 25 80 35 23 10 61 28 85 38 356 159 1101 526 1347 663 25 14 85 46 135 72 49 26 94 51 100 55 5 5 37 23 70 41 33 18 84 47 113 63 29 16 55 27 57 25 9 -8 -322 -318 -505 -473 -45 -38 -108 -92 -140 -120 -31 -27 -90 -77 -130 -110 -40 -33 -92 -76 -115 -95 -24 -19 -69 -55 -100 -80 -32 -25 -71 -57 -89 -71 -40 -33 -189 -147 -229 -177 -18 -12 -52 -38 -77 -57 -25 -19 -61 -46 -80 -60 -19 -14 -62 -45 -95 -70 -62 -46 -88 -65 -265 -189 -172 -121 -814 -546 -825 -546 -2 0 -24 -13 -48 -30 -25 -16 -47 -30 -50 -30 -4 0 -26 -13 -50 -30 -25 -16 -47 -30 -50 -30 -4 0 -26 -13 -50 -30 -25 -16 -48 -30 -53 -30 -4 0 -15 -6 -23 -14 -9 -7 -36 -25 -61 -38 -25 -14 -90 -52 -145 -84 -55 -33 -113 -66 -130 -74 -16 -8 -41 -22 -55 -31 -14 -9 -50 -29 -80 -46 -30 -17 -73 -40 -95 -53 -22 -12 -80 -44 -130 -70 -49 -26 -137 -73 -195 -104 -108 -58 -605 -305 -742 -370 -221 -103 -278 -129 -473 -216 -25 -11 -65 -29 -90 -40 -104 -46 -141 -62 -162 -71 -13 -5 -33 -13 -45 -18 -39 -15 -102 -43 -132 -57 -16 -8 -33 -14 -38 -14 -4 0 -30 -9 -56 -21 -26 -12 -57 -25 -69 -30 -13 -5 -34 -13 -48 -19 -14 -5 -36 -14 -50 -20 -14 -5 -36 -14 -50 -20 -14 -5 -35 -14 -47 -19 -53 -21 -100 -32 -228 -52 -30 -4 -80 -13 -110 -18 -69 -12 -178 -30 -250 -42 -30 -4 -82 -13 -115 -19 -33 -5 -91 -14 -130 -20 -38 -6 -99 -15 -135 -21 -36 -5 -96 -14 -135 -19 -38 -5 -101 -14 -140 -20 -38 -5 -106 -15 -150 -20 -44 -6 -116 -15 -160 -20 -306 -40 -652 -78 -890 -99 -55 -5 -120 -12 -145 -15 -96 -12 -500 -43 -875 -67 -609 -38 -1266 -52 -2040 -43 -357 4 -668 8 -690 10 -22 2 -125 8 -230 14 -433 23 -812 50 -1090 79 -239 25 -305 32 -390 42 -49 5 -121 12 -160 15 -38 3 -79 9 -90 14 -11 5 -49 11 -85 14 -65 6 -136 15 -280 36 -41 7 -102 16 -135 21 -118 17 -259 40 -375 60 -30 6 -75 12 -100 15 -25 3 -54 9 -65 14 -11 5 -39 11 -62 14 -24 3 -62 9 -85 12 -24 3 -52 9 -63 14 -11 5 -38 11 -60 14 -40 6 -111 19 -195 37 -25 6 -61 12 -80 15 -19 3 -44 9 -55 14 -11 5 -33 11 -50 13 -84 14 -112 19 -130 27 -21 9 -60 17 -130 27 -22 3 -44 8 -50 12 -5 4 -37 13 -70 20 -33 7 -68 17 -77 22 -10 5 -31 9 -48 9 -17 0 -38 4 -48 9 -29 14 -87 31 -110 31 -11 0 -24 5 -27 10 -3 6 -21 10 -40 10 -19 0 -37 5 -40 10 -3 6 -21 10 -40 10 -19 0 -37 5 -40 10 -3 5 -16 10 -29 10 -12 0 -26 4 -31 8 -6 5 -35 14 -65 21 -30 7 -64 16 -75 20 -44 18 -93 31 -113 31 -11 0 -24 5 -27 10 -3 5 -17 10 -30 10 -13 0 -27 5 -30 10 -3 6 -15 10 -26 10 -10 0 -27 4 -37 9 -9 5 -37 15 -62 21 -25 7 -54 16 -65 20 -11 5 -38 14 -60 21 -22 6 -49 15 -60 20 -11 4 -38 13 -60 20 -22 7 -44 17 -49 21 -6 4 -20 8 -32 8 -13 0 -26 5 -29 10 -3 6 -17 10 -30 10 -13 0 -27 5 -30 10 -3 6 -15 10 -26 10 -10 0 -27 4 -37 9 -9 5 -30 14 -47 21 -16 7 -38 16 -47 21 -10 5 -24 9 -31 9 -7 0 -32 9 -55 20 -22 11 -46 20 -52 20 -5 0 -18 4 -28 9 -18 9 -35 16 -144 60 -25 10 -73 30 -130 55 -21 9 -53 22 -70 30 -100 42 -107 45 -298 133 -170 79 -566 282 -612 314 -14 11 -29 19 -33 19 -4 0 -27 14 -52 30 -24 17 -46 30 -48 30 -9 0 -180 105 -183 112 -2 5 -8 8 -13 8 -10 0 -243 152 -272 178 -9 8 -26 20 -36 26 -33 20 -75 49 -175 126 -54 41 -114 86 -132 100 -139 106 -224 189 -224 219 0 7 -9 31 -20 53 -11 23 -20 48 -20 55 0 7 -4 22 -10 33 -5 11 -14 29 -20 40 -5 11 -10 29 -10 39 0 11 -4 23 -10 26 -5 3 -10 15 -10 26 0 10 -4 27 -9 37 -11 20 -40 112 -51 162 -5 19 -18 71 -29 115 -19 73 -33 136 -61 280 -5 28 -14 84 -19 125 -6 41 -15 111 -22 156 -6 44 -14 194 -17 331 -7 259 -4 279 31 210z m515 -2089 c113 -88 565 -398 579 -398 3 0 25 -13 50 -30 24 -16 46 -30 50 -30 3 0 25 -13 50 -30 24 -16 46 -30 48 -30 2 0 28 -14 57 -32 29 -17 86 -48 126 -70 39 -21 107 -57 150 -80 163 -87 553 -273 647 -308 11 -4 43 -18 70 -30 49 -22 77 -34 123 -51 12 -5 32 -13 45 -18 12 -4 33 -13 47 -18 14 -6 37 -15 53 -22 15 -6 38 -15 52 -21 61 -24 81 -33 97 -41 10 -5 25 -9 33 -9 8 0 23 -4 33 -9 9 -5 31 -14 47 -21 17 -7 38 -16 47 -21 10 -5 27 -9 37 -9 11 0 23 -4 26 -10 3 -5 17 -10 30 -10 13 0 27 -4 30 -10 3 -5 17 -10 30 -10 13 0 27 -4 30 -10 3 -5 14 -10 24 -10 9 0 36 -9 59 -20 22 -11 50 -20 61 -20 11 0 23 -4 26 -10 3 -5 19 -10 35 -10 16 0 32 -4 35 -10 3 -5 17 -10 30 -10 13 0 27 -4 30 -10 3 -5 17 -10 30 -10 13 0 27 -4 30 -10 3 -5 17 -10 30 -10 13 0 27 -4 30 -10 3 -5 17 -10 30 -10 13 0 27 -4 30 -10 3 -5 21 -10 40 -10 19 0 37 -4 40 -10 3 -6 17 -10 30 -10 13 0 27 -4 30 -10 3 -5 17 -10 30 -10 13 0 27 -4 30 -10 3 -5 19 -10 36 -10 16 0 37 -4 47 -9 29 -14 87 -31 110 -31 11 0 24 -4 27 -10 3 -5 21 -10 40 -10 19 0 37 -4 40 -10 3 -5 19 -10 36 -10 16 0 37 -4 47 -9 16 -8 33 -13 137 -39 88 -22 131 -34 161 -43 17 -5 42 -9 57 -9 14 0 29 -4 32 -10 3 -5 24 -10 45 -10 21 0 41 -4 44 -9 3 -5 23 -11 43 -15 21 -3 56 -8 78 -11 22 -4 49 -10 60 -15 11 -5 38 -11 60 -15 22 -4 60 -11 85 -16 25 -6 68 -14 95 -20 28 -5 73 -14 100 -20 28 -5 74 -12 103 -15 29 -4 55 -10 58 -15 3 -5 25 -9 49 -9 24 0 46 -4 49 -9 3 -5 29 -11 58 -15 29 -3 80 -11 113 -16 84 -15 165 -28 233 -39 31 -5 89 -14 127 -21 146 -23 360 -53 580 -80 254 -32 238 -30 525 -60 332 -34 679 -62 1015 -79 99 -6 209 -12 245 -15 148 -13 574 -20 1215 -20 674 -1 952 5 1280 24 94 6 211 13 260 15 247 14 553 35 725 50 30 3 82 7 115 10 33 3 107 10 165 16 58 6 150 14 205 19 125 12 265 26 375 39 47 5 128 15 180 21 52 6 127 15 165 20 39 5 108 14 155 19 47 6 119 16 160 21 316 44 336 47 415 59 39 6 93 14 120 16 50 6 49 6 -25 -20 -41 -14 -84 -30 -95 -34 -11 -5 -38 -14 -60 -20 -22 -7 -49 -16 -60 -21 -11 -4 -40 -14 -65 -21 -25 -7 -49 -16 -55 -21 -5 -4 -19 -8 -31 -8 -13 0 -26 -4 -29 -10 -3 -5 -15 -10 -26 -10 -10 0 -27 -4 -37 -9 -9 -5 -51 -19 -92 -31 -41 -12 -83 -26 -92 -31 -10 -5 -27 -9 -37 -9 -11 0 -23 -4 -26 -10 -3 -5 -17 -10 -31 -10 -13 0 -32 -4 -42 -9 -9 -5 -37 -14 -62 -21 -25 -7 -53 -16 -62 -21 -10 -5 -25 -9 -34 -9 -18 0 -139 -37 -166 -51 -10 -5 -31 -9 -47 -9 -17 0 -33 -4 -36 -10 -3 -5 -16 -10 -27 -10 -23 0 -81 -17 -110 -31 -10 -5 -25 -9 -35 -9 -9 0 -30 -4 -47 -9 -17 -5 -51 -15 -76 -21 -25 -7 -53 -16 -62 -21 -10 -5 -31 -9 -47 -9 -17 0 -33 -4 -36 -10 -3 -5 -21 -10 -40 -10 -19 0 -37 -4 -40 -10 -3 -5 -21 -10 -40 -10 -19 0 -37 -4 -40 -10 -3 -5 -21 -10 -40 -10 -19 0 -37 -5 -40 -10 -3 -6 -17 -10 -30 -10 -24 0 -158 -31 -221 -50 -17 -6 -42 -10 -55 -10 -14 0 -29 -4 -35 -9 -5 -5 -27 -11 -49 -14 -69 -10 -109 -18 -130 -27 -11 -5 -36 -11 -55 -14 -70 -10 -105 -18 -125 -26 -11 -5 -40 -11 -65 -14 -77 -10 -114 -17 -135 -26 -11 -5 -40 -11 -65 -14 -25 -3 -70 -10 -100 -16 -30 -6 -80 -15 -110 -20 -30 -6 -80 -15 -110 -20 -30 -6 -82 -15 -115 -20 -33 -5 -87 -14 -120 -20 -33 -6 -88 -15 -122 -20 -35 -6 -93 -15 -130 -20 -38 -6 -99 -15 -138 -20 -38 -5 -104 -14 -145 -20 -190 -25 -227 -30 -500 -60 -229 -25 -514 -49 -680 -56 -74 -4 -139 -10 -145 -14 -5 -4 -80 -8 -165 -9 -85 0 -242 -6 -348 -12 -291 -17 -1081 -1 -1507 30 -292 22 -570 50 -790 80 -274 37 -415 59 -525 81 -30 6 -75 13 -100 16 -25 3 -54 9 -65 14 -11 5 -38 11 -60 14 -87 11 -121 18 -140 26 -21 9 -61 17 -130 27 -22 3 -44 9 -50 14 -5 5 -24 9 -41 9 -18 0 -35 4 -38 9 -3 5 -23 11 -43 15 -88 13 -113 19 -119 27 -3 5 -20 9 -39 9 -19 0 -37 5 -40 10 -3 5 -21 10 -40 10 -19 0 -37 4 -40 10 -3 5 -19 10 -35 10 -16 0 -32 5 -35 10 -3 6 -19 10 -35 10 -16 0 -32 5 -35 10 -3 6 -17 10 -30 10 -13 0 -27 5 -30 10 -3 6 -19 10 -35 10 -16 0 -32 5 -35 10 -3 6 -19 10 -35 10 -16 0 -32 5 -35 10 -3 6 -17 10 -30 10 -13 0 -27 5 -30 10 -3 6 -17 10 -30 10 -13 0 -27 5 -30 10 -3 5 -17 10 -30 10 -13 0 -27 4 -30 10 -3 5 -17 10 -30 10 -13 0 -27 5 -30 10 -3 5 -15 10 -26 10 -10 0 -29 5 -42 12 -47 24 -57 28 -72 28 -8 0 -24 5 -35 10 -11 5 -29 15 -40 20 -11 5 -27 10 -35 10 -8 0 -23 4 -33 9 -9 5 -28 13 -42 18 -14 6 -37 15 -52 22 -16 6 -38 15 -50 20 -13 5 -45 19 -73 31 -27 12 -59 26 -70 30 -82 30 -433 199 -575 276 -168 91 -239 132 -272 155 -14 11 -29 19 -33 19 -14 0 -430 283 -509 346 -45 35 -105 83 -135 107 -172 136 -487 435 -602 572 -153 182 -253 311 -331 426 -121 179 -254 399 -241 399 3 0 31 -19 61 -42z"/>
  </g>
</svg>