<svg xmlns="http://www.w3.org/2000/svg" xmlns:xlink="http://www.w3.org/1999/xlink" version="1.1" width="3160.0129303378053" 
height="552.1247308831205" viewBox="0 0 3160.0129303378053 552.1247308831205">

<g transform="scale(8.000646516890255) translate(10, 10)">
<defs id="SvgjsDefs3029"></defs><g id="SvgjsG3030" featureKey="nRdZyp-0" transform="matrix(0.5523989898989898,0,0,0.5523989898989898,0,1.0546698558210128)" fill="#f59f00"><path xmlns="http://www.w3.org/2000/svg" d="M28.416,76.572c-1.024,0-2.048-0.393-2.832-1.172L1.172,50.844C0.42,50.092,0,49.068,0,48c0-1.068,0.42-2.088,1.176-2.848  l24.412-24.548c1.56-1.568,4.092-1.576,5.656,0.004c1.56,1.58,1.56,4.12-0.004,5.696L9.664,48l21.58,21.704  c1.56,1.571,1.56,4.116,0,5.688C30.464,76.18,29.432,76.572,28.416,76.572L28.416,76.572z"></path><path xmlns="http://www.w3.org/2000/svg" d="M67.588,76.572c-1.023,0-2.052-0.393-2.828-1.18c-1.568-1.572-1.568-4.117,0-5.697L86.344,48L64.76,26.304  c-1.568-1.58-1.568-4.12,0-5.696c1.568-1.58,4.088-1.576,5.656-0.008l24.412,24.552C95.58,45.9,96,46.928,96,48  c0,1.068-0.42,2.088-1.172,2.844L70.416,75.393C69.641,76.18,68.611,76.572,67.588,76.572L67.588,76.572z"></path><path xmlns="http://www.w3.org/2000/svg" d="M38.348,78c-0.476,0-0.964-0.084-1.436-0.264c-2.06-0.805-3.092-3.133-2.296-5.213l19.868-51.947  c0.795-2.076,3.107-3.096,5.168-2.304c2.06,0.796,3.088,3.124,2.296,5.204L42.072,75.424C41.476,77.016,39.952,78,38.348,78z"></path></g><g id="SvgjsG3031" featureKey="Q4qmbg-0" transform="matrix(2.1852041464102783,0,0,2.1852041464102783,76.60146859606712,-5.576388402061438)" fill="#495057"><path d="M7.7 10.12 l2.96 0 l0 9.58 c0 2.92 -2.14 5.28 -5.22 5.28 c-1.7 0 -2.98 -0.78 -4.1 -2.02 l2.1 -1.9 c0.62 0.92 1.18 1.48 2 1.48 c1.4 0 2.24 -1.54 2.24 -3.22 c-0.36 0.48 -1.42 0.82 -2.04 0.82 c-2.88 0 -5 -2.16 -5 -5.08 s2.12 -5.1 5 -5.1 c0.68 0 1.74 0.36 2.06 0.82 l0 -0.66 z M5.84 17.92 c1.34 0 2.26 -1.54 2.26 -2.86 c0 -1.34 -0.9 -2.86 -2.26 -2.86 c-1.22 0 -2.24 1.28 -2.24 2.86 c0 1.56 1.02 2.86 2.24 2.86 z M23.20770833333333 10.12 l3.02 0 l-3.76 9.88 l-1.94 0 l-1.84 -4.78 c-0.62 1.66 -1.22 3.22 -1.8 4.78 l-1.96 0 l-3.78 -9.88 l3.04 0 l1.72 5.44 l1.7 -5.44 l2.18 0 l1.7 5.46 z M33.43541666666666 10.26 l-0.4 2.22 c-0.74 -0.32 -0.88 -0.26 -1.22 -0.26 c-1.2 0 -1.9 0.64 -1.9 2.22 l0 5.56 l-2.96 0 l0 -9.88 l2.96 0 l0 0.88 c0.38 -0.68 1.42 -1.02 2.08 -1.02 c0.62 0 0.98 0.02 1.44 0.28 z M36.74312499999999 10.12 l0 9.88 l-2.96 0 l0 -9.88 l2.96 0 z M36.82312499999999 7.279999999999999 c0 0.84 -0.68 1.5 -1.58 1.5 c-0.86 0 -1.56 -0.66 -1.56 -1.5 c0 -0.82 0.7 -1.46 1.56 -1.46 c0.9 0 1.58 0.64 1.58 1.46 z M45.11083333333333 10.12 l2.96 0 l0 9.58 c0 2.92 -2.14 5.28 -5.22 5.28 c-1.7 0 -2.98 -0.78 -4.1 -2.02 l2.1 -1.9 c0.62 0.92 1.18 1.48 2 1.48 c1.4 0 2.24 -1.54 2.24 -3.22 c-0.36 0.48 -1.42 0.82 -2.04 0.82 c-2.88 0 -5 -2.16 -5 -5.08 s2.12 -5.1 5 -5.1 c0.68 0 1.74 0.36 2.06 0.82 l0 -0.66 z M43.25083333333333 17.92 c1.34 0 2.26 -1.54 2.26 -2.86 c0 -1.34 -0.9 -2.86 -2.26 -2.86 c-1.22 0 -2.24 1.28 -2.24 2.86 c0 1.56 1.02 2.86 2.24 2.86 z M59.158541666666665 14.36 l0 5.64 l-2.96 0 l0 -5.64 c0 -1.52 -0.4 -2.16 -1.56 -2.16 c-1.2 0 -1.9 0.64 -1.9 2.16 l0 5.64 l-2.96 0 l0 -14.52 l2.96 0 l0 5.74 c0.38 -1.1 1.82 -1.24 2.68 -1.24 c2.76 0 3.74 1.34 3.74 4.38 z M64.32625 15.8 c0 0.72 -0.02 1.92 1.08 1.92 c0.54 0 0.88 -0.22 1.26 -0.5 l0 2.44 c-0.46 0.26 -1.02 0.5 -1.62 0.5 c-2.54 0 -3.68 -1.08 -3.68 -4.36 l0 -3.24 l-1.1 0 l0 -2.44 l1.1 0 l0 -2.84 l2.96 0 l0 2.84 l2.34 0 l0 2.44 l-2.34 0 l0 3.24 z M69.59395833333333 5 l5.3 0 l0 15 l-3.2 0 l0 -12.34 l-2.1 0 l0 -2.66 z M76.96166666666666 5 l11.56 0 l-8.36 15 l-3.52 0 l6.92 -12.34 l-6.6 0 l0 -2.66 z M94.16937499999999 4.84 c2.96 0 5.34 2.22 5.38 5.18 l0.02 0.02 l-0.02 4.94 c-0.02 3 -2.4 5.2 -5.38 5.2 c-2.96 0 -5.34 -2.2 -5.38 -5.2 l0 -4.94 c0.04 -2.98 2.42 -5.2 5.38 -5.2 z M96.50937499999999 14.9 l0 -4.78 c0 -1.42 -1.06 -2.38 -2.34 -2.38 c-1.26 0 -2.32 0.96 -2.32 2.38 l0 4.78 c0 1.42 1.06 2.4 2.32 2.4 c1.28 0 2.34 -0.98 2.34 -2.4 z M104.37708333333332 18.38 c0 1.02 -0.84 1.8 -1.9 1.8 s-1.88 -0.78 -1.88 -1.8 c0 -0.96 0.82 -1.76 1.88 -1.76 s1.9 0.8 1.9 1.76 z M104.92479166666665 15.08 c0 -2.92 1.92 -5.1 4.82 -5.1 c0.64 0 1.9 0.34 2.24 0.82 l0 -5.32 l2.98 0 l0 14.52 l-2.98 0 l0 -0.66 c-0.36 0.46 -1.38 0.82 -2.04 0.82 c-2.9 0 -5.02 -2.16 -5.02 -5.08 z M107.90479166666665 15.08 c0 1.56 1 2.84 2.24 2.84 c1.36 0 2.24 -1.52 2.24 -2.84 s-0.86 -2.86 -2.24 -2.86 c-1.24 0 -2.24 1.28 -2.24 2.86 z M126.27249999999998 15.08 l0 0.66 l-7.04 0 c0 1.16 1.18 1.98 2.16 1.98 c0.96 0 1.84 -0.38 2.3 -1.22 l1.98 1.82 c-0.8 1.08 -2.02 1.84 -4.28 1.84 c-3.24 0 -5.22 -2.16 -5.22 -5.08 s1.92 -5.1 5.04 -5.1 s5.06 2.14 5.06 5.1 z M119.29249999999999 13.86 l3.88 0 c-0.16 -0.94 -0.84 -1.44 -1.96 -1.44 c-1.08 0 -1.74 0.58 -1.92 1.44 z M132.40020833333332 20 l-1.94 0 l-4.18 -9.88 l3.06 0 l2.08 5.64 c0.68 -1.72 1.44 -3.98 2.08 -5.64 l3.04 0 z"></path></g>
</g>
</svg>
