<?xml version="1.0" encoding="UTF-8" standalone="no" ?>
<!DOCTYPE svg PUBLIC "-//W3C//DTD SVG 1.1//EN" "http://www.w3.org/Graphics/SVG/1.1/DTD/svg11.dtd">
<svg xmlns="http://www.w3.org/2000/svg" xmlns:xlink="http://www.w3.org/1999/xlink" version="1.1" width="1080" height="1080" viewBox="0 0 1080 1080" xml:space="preserve">
<desc>Created with Fabric.js 5.2.4</desc>
<defs>
</defs>
<g transform="matrix(1 0 0 1 540 540)" id="a4c64b8e-bd3b-4201-a9c9-bcbdffeb006a"  >
<rect style="stroke: none; stroke-width: 1; stroke-dasharray: none; stroke-linecap: butt; stroke-dashoffset: 0; stroke-linejoin: miter; stroke-miterlimit: 4; fill: rgb(255,255,255); fill-rule: nonzero; opacity: 1; visibility: hidden;" vector-effect="non-scaling-stroke"  x="-540" y="-540" rx="0" ry="0" width="1080" height="1080" />
</g>
<g transform="matrix(1 0 0 1 540 540)" id="34e62da2-3d6e-4500-98e8-63e155fdc2c3"  >
</g>
<g transform="matrix(16.36 0 0 16.36 541 538.84)" id="79d1be0a-be0d-40f0-86e3-2327abab3563"  >
<rect style="stroke: rgb(0,0,0); stroke-width: 0; stroke-dasharray: none; stroke-linecap: butt; stroke-dashoffset: 0; stroke-linejoin: miter; stroke-miterlimit: 4; fill: rgb(91,41,227); fill-rule: nonzero; opacity: 1;" vector-effect="non-scaling-stroke"  x="-33.085" y="-33.085" rx="0" ry="0" width="66.17" height="66.17" />
</g>
<g transform="matrix(8.61 0 0 8.61 266.29 539.96)"  >
<path style="stroke: none; stroke-width: 1; stroke-dasharray: none; stroke-linecap: butt; stroke-dashoffset: 0; stroke-linejoin: miter; stroke-miterlimit: 4; fill: rgb(255,255,255); fill-rule: nonzero; opacity: 1;" vector-effect="non-scaling-stroke"  transform=" translate(-16.21, -48)" d="M 28.416 76.572 C 27.392 76.572 26.368000000000002 76.179 25.584 75.4 L 1.172 50.844 C 0.42 50.092 0 49.068 0 48 C 0 46.932 0.42 45.912 1.176 45.152 L 25.587999999999997 20.604000000000003 C 27.147999999999996 19.036 29.679999999999996 19.028000000000002 31.243999999999996 20.608000000000004 C 32.803999999999995 22.188000000000002 32.803999999999995 24.728000000000005 31.239999999999995 26.304000000000002 L 9.664 48 L 31.244 69.70400000000001 C 32.804 71.275 32.804 73.82000000000001 31.244 75.39200000000001 C 30.464 76.18 29.432 76.572 28.416 76.572 L 28.416 76.572 z" stroke-linecap="round" />
</g>
<g transform="matrix(8.61 0 0 8.61 813.7 539.95)"  >
<path style="stroke: none; stroke-width: 1; stroke-dasharray: none; stroke-linecap: butt; stroke-dashoffset: 0; stroke-linejoin: miter; stroke-miterlimit: 4; fill: rgb(255,255,255); fill-rule: nonzero; opacity: 1;" vector-effect="non-scaling-stroke"  transform=" translate(-79.79, -48)" d="M 67.588 76.572 C 66.565 76.572 65.53599999999999 76.179 64.75999999999999 75.392 C 63.19199999999999 73.82 63.19199999999999 71.27499999999999 64.75999999999999 69.695 L 86.344 48 L 64.76 26.304 C 63.19200000000001 24.723999999999997 63.19200000000001 22.183999999999997 64.76 20.607999999999997 C 66.328 19.028 68.848 19.031999999999996 70.41600000000001 20.599999999999998 L 94.828 45.152 C 95.58 45.9 96 46.928 96 48 C 96 49.068 95.58 50.088 94.828 50.844 L 70.416 75.393 C 69.641 76.18 68.611 76.572 67.588 76.572 L 67.588 76.572 z" stroke-linecap="round" />
</g>
<g transform="matrix(8.61 0 0 8.61 542.43 540)"  >
<path style="stroke: none; stroke-width: 1; stroke-dasharray: none; stroke-linecap: butt; stroke-dashoffset: 0; stroke-linejoin: miter; stroke-miterlimit: 4; fill: rgb(255,255,255); fill-rule: nonzero; opacity: 1;" vector-effect="non-scaling-stroke"  transform=" translate(-48.28, -48)" d="M 38.348 78 C 37.872 78 37.384 77.916 36.912 77.736 C 34.852 76.931 33.82 74.60300000000001 34.616 72.52300000000001 L 54.483999999999995 20.576000000000008 C 55.278999999999996 18.500000000000007 57.590999999999994 17.480000000000008 59.651999999999994 18.27200000000001 C 61.711999999999996 19.06800000000001 62.739999999999995 21.396000000000008 61.94799999999999 23.47600000000001 L 42.072 75.424 C 41.476 77.016 39.952 78 38.348 78 z" stroke-linecap="round" />
</g>
<g transform="matrix(NaN NaN NaN NaN 0 0)"  >
<g style=""   >
</g>
</g>
</svg>